<?xml version="1.0" standalone="no"?>
<!DOCTYPE svg PUBLIC "-//W3C//DTD SVG 20010904//EN"
 "http://www.w3.org/TR/2001/REC-SVG-20010904/DTD/svg10.dtd">
<svg version="1.0" xmlns="http://www.w3.org/2000/svg"
 width="1080.000000pt" height="1251.000000pt" viewBox="0 0 1080.000000 1251.000000"
 preserveAspectRatio="xMidYMid meet">
<metadata>
Created by potrace 1.16, written by Peter Selinger 2001-2019
</metadata>
<g transform="translate(0.000000,1251.000000) scale(0.100000,-0.100000)"
fill="#000000" stroke="none">
<path d="M10 10810 c0 -935 4 -1699 8 -1698 4 1 17 -4 30 -12 38 -25 25 -98
-17 -87 -20 5 -21 1 -21 -51 0 -55 5 -79 31 -169 11 -37 11 -44 -5 -62 -9 -10
-16 -25 -15 -33 1 -7 -1 -20 -5 -28 -3 -9 -5 -84 -4 -167 l3 -151 33 13 c18 8
33 13 35 12 1 -1 16 7 32 19 17 11 41 25 55 31 14 6 37 27 50 47 14 19 36 40
50 45 31 11 80 57 80 75 0 13 -78 86 -92 86 -4 0 -8 20 -8 44 0 32 6 50 25 70
13 14 21 26 18 26 -4 0 8 11 26 24 17 13 51 42 73 65 23 23 51 41 62 41 20 0
86 -64 86 -84 1 -6 11 -24 24 -40 l24 -29 64 23 c34 13 66 29 70 34 5 8 15 6
30 -3 28 -18 130 -43 122 -30 -12 19 42 8 77 -17 62 -42 65 -63 46 -249 -1
-14 5 -21 22 -23 14 -2 33 -15 44 -28 21 -27 47 -32 47 -9 0 9 11 20 24 25 14
5 33 21 42 35 17 26 56 51 103 65 14 4 35 11 45 16 13 5 17 4 12 -4 -3 -6 -2
-13 4 -17 5 -3 10 -1 10 5 0 6 5 8 10 5 6 -4 16 -2 23 3 22 17 87 24 103 11
22 -18 82 -22 118 -8 17 6 53 22 80 35 28 13 56 24 63 24 16 0 33 32 33 63 0
64 35 107 94 114 17 2 32 7 35 12 10 15 51 23 51 10 0 -15 51 -59 62 -53 4 3
14 2 21 -3 6 -4 18 -8 26 -10 8 -1 29 -17 46 -35 40 -41 48 -92 29 -182 -7
-35 -15 -79 -17 -98 -4 -40 -15 -61 -28 -52 -22 13 -37 -17 -32 -62 2 -25 0
-59 -6 -76 -26 -73 18 -198 69 -198 11 0 35 -11 55 -25 34 -22 112 -34 100
-15 -3 4 0 22 6 40 9 24 24 37 66 57 l55 26 -26 24 c-23 21 -26 32 -26 90 0
46 6 80 20 110 11 24 29 62 40 86 25 54 89 118 121 119 13 1 29 6 36 10 7 6
20 5 34 -2 12 -7 34 -16 48 -20 14 -4 35 -11 45 -16 18 -7 19 -4 13 45 -5 45
-13 61 -52 102 -25 26 -45 52 -45 57 0 33 -24 180 -32 195 -5 10 -29 27 -54
37 -95 41 -149 106 -173 211 -11 46 -11 63 -1 95 13 40 58 113 64 104 2 -3 15
10 30 27 42 50 136 65 197 32 11 -5 40 -11 64 -13 25 -1 51 -8 57 -14 7 -7 18
-12 26 -12 32 0 45 -31 47 -108 2 -81 12 -132 25 -132 4 0 10 -10 13 -22 3
-13 13 -52 22 -88 10 -36 17 -91 16 -123 -1 -44 6 -70 25 -108 13 -27 31 -52
39 -55 8 -4 52 -2 97 2 l83 9 -4 40 c-1 22 -7 48 -12 57 -11 21 -1 48 17 48
16 0 18 29 5 97 -17 84 -19 191 -6 210 11 15 19 11 76 -46 35 -35 82 -75 104
-89 43 -28 85 -39 85 -22 0 17 63 50 97 50 25 0 37 7 50 28 37 58 106 111 153
119 88 13 150 9 168 -12 10 -11 32 -33 50 -50 28 -25 34 -27 42 -15 8 13 14
13 41 -3 44 -25 51 -15 44 58 -9 79 -1 117 32 149 38 38 64 33 115 -21 51 -55
100 -78 131 -62 19 11 81 8 169 -7 31 -5 37 -3 43 15 3 12 17 29 31 37 13 9
24 23 24 30 0 8 16 32 36 54 l36 40 94 -4 c76 -3 99 -8 120 -25 33 -26 51 -26
89 -1 40 26 101 27 115 1 5 -11 10 -29 10 -40 0 -13 6 -21 17 -21 9 0 34 -12
55 -26 21 -15 40 -25 41 -23 2 2 16 38 31 80 37 103 71 136 157 150 35 6 68
14 74 20 15 15 55 10 82 -11 14 -11 36 -20 49 -20 41 0 75 -19 136 -78 51 -48
66 -57 97 -57 29 0 37 -4 39 -21 2 -12 14 -32 28 -45 13 -12 24 -29 24 -37 0
-11 3 -12 14 -3 11 9 18 6 33 -15 19 -25 20 -26 56 -10 21 8 40 23 44 33 21
58 106 32 129 -39 4 -15 9 -16 26 -7 15 8 31 6 70 -11 27 -12 59 -22 69 -23
10 -1 19 -6 19 -12 0 -18 38 52 51 94 22 74 69 43 69 -45 0 -19 4 -33 9 -29 5
3 12 1 15 -4 3 -4 24 -11 47 -15 63 -10 179 -69 223 -112 53 -52 86 -127 87
-195 0 -30 -11 -99 -25 -154 -14 -55 -26 -101 -26 -102 0 -2 18 -14 40 -28 75
-47 121 -98 160 -174 39 -79 135 -199 159 -200 7 -1 41 13 75 31 33 17 87 44
118 60 40 20 58 35 58 48 0 10 -4 22 -10 25 -14 8 -13 79 2 128 28 92 125 133
194 80 17 -12 39 -23 49 -23 12 0 16 -6 12 -19 -3 -15 -1 -18 11 -14 11 5 13
3 7 -7 -5 -8 -2 -17 8 -25 27 -19 29 -57 7 -100 -11 -21 -20 -46 -20 -55 0
-18 -32 -51 -65 -68 -23 -11 -54 -2 -74 22 -7 9 -21 16 -30 16 -14 0 50 -49
117 -90 37 -23 60 -58 75 -115 15 -59 58 -133 108 -189 36 -41 73 -106 89
-158 8 -25 5 -29 -34 -48 -58 -27 -186 -28 -276 0 -36 11 -68 20 -71 20 -3 0
-6 -28 -6 -63 -1 -35 -10 -90 -21 -123 -11 -32 -30 -93 -42 -134 -12 -41 -33
-107 -46 -146 -23 -69 -32 -140 -16 -130 5 3 16 -8 26 -25 9 -16 25 -29 36
-29 13 0 17 -5 13 -20 -3 -11 0 -20 6 -20 6 0 11 -6 11 -14 0 -8 4 -16 10 -18
5 -1 10 -19 11 -38 2 -19 9 -43 18 -53 12 -15 13 -22 3 -37 -7 -11 -12 -38
-12 -60 0 -40 -5 -46 -45 -52 -15 -2 -19 2 -17 16 3 15 -1 18 -17 13 -16 -4
-25 2 -36 23 -8 16 -15 34 -15 40 0 6 -7 19 -16 27 -9 9 -14 26 -11 40 2 13 0
26 -4 29 -5 3 -9 -1 -9 -8 0 -10 -2 -10 -8 -1 -10 16 -15 12 -102 -86 -63 -70
-183 -171 -204 -171 -3 0 -31 -17 -63 -37 -116 -74 -417 -203 -475 -203 -10 0
-37 -17 -61 -38 -55 -51 -64 -53 -187 -58 -119 -5 -202 -24 -234 -52 -29 -27
-62 -43 -97 -47 -26 -4 -28 -2 -19 15 7 13 7 21 0 25 -12 8 -4 59 10 63 24 8
5 38 -68 110 -42 43 -89 93 -103 112 -30 41 -21 47 -130 -90 -42 -52 -93 -108
-114 -125 -21 -16 -54 -47 -75 -67 -21 -21 -43 -38 -50 -38 -7 0 -10 -6 -7
-14 4 -10 -7 -15 -45 -18 -28 -3 -54 -11 -59 -19 -4 -7 -11 -11 -14 -7 -3 3
-30 0 -58 -8 -29 -8 -72 -17 -97 -20 -25 -3 -65 -13 -89 -21 -24 -8 -53 -12
-66 -9 -12 3 -53 -1 -91 -8 -38 -8 -86 -17 -108 -21 -26 -4 -40 -12 -43 -26
-6 -21 -28 -26 -39 -8 -16 26 -218 -26 -263 -68 -21 -19 -21 -19 46 -11 134
17 271 44 234 47 -28 2 -2 12 70 26 103 21 229 24 327 8 45 -7 122 -16 170
-19 48 -3 121 -12 162 -21 41 -8 89 -17 105 -20 77 -12 145 -65 165 -128 14
-46 40 -97 55 -107 6 -5 4 -8 -4 -8 -11 0 -10 -4 4 -13 10 -8 15 -18 12 -24
-3 -5 10 -15 29 -22 32 -12 38 -11 70 14 20 15 33 33 30 40 -2 7 2 16 10 19 8
3 14 13 14 22 0 9 8 22 17 29 13 10 15 16 6 26 -6 8 -14 25 -18 38 -10 32 -44
60 -73 61 -12 0 -25 7 -28 15 -4 9 -26 25 -50 36 -29 13 -44 26 -44 38 0 11
-3 27 -7 37 -5 14 -1 16 25 12 29 -4 33 -2 31 18 0 4 12 13 28 21 20 11 44 13
88 8 133 -14 227 -5 265 25 56 45 74 54 106 54 37 0 84 -36 84 -65 0 -10 5
-21 10 -24 6 -3 10 -20 10 -36 0 -29 25 -62 64 -84 10 -6 28 -28 40 -50 11
-22 35 -66 53 -97 18 -33 35 -81 39 -110 4 -29 15 -65 26 -80 11 -16 17 -32
14 -36 -3 -5 1 -9 9 -10 8 -1 22 -3 30 -4 8 -1 15 -7 15 -13 0 -7 6 -18 14
-24 15 -12 27 -57 18 -66 -3 -3 -7 -24 -9 -48 -3 -23 -9 -46 -14 -51 -12 -13
-12 -53 0 -60 5 -3 7 -14 4 -25 -2 -10 3 -25 11 -34 9 -8 16 -19 16 -23 0 -4
7 -16 16 -25 15 -17 15 -22 1 -51 -27 -59 -29 -77 -13 -94 9 -8 16 -23 16 -32
1 -39 52 -71 115 -74 6 0 18 -4 29 -10 10 -6 60 -11 110 -12 82 -2 97 -5 156
-36 92 -49 95 -48 124 15 14 29 26 58 26 62 0 19 25 63 36 63 34 0 81 116 62
153 -6 12 -5 17 4 17 8 0 6 5 -4 11 -10 5 -18 14 -18 20 0 23 -45 69 -67 69
-13 0 -23 -5 -23 -11 0 -5 5 -7 10 -4 6 3 10 2 10 -3 0 -16 -44 -22 -80 -12
-25 7 -41 6 -69 -7 -20 -9 -38 -20 -41 -23 -9 -11 -41 -20 -35 -10 3 6 1 10
-5 10 -7 0 -26 6 -43 14 -18 8 -40 16 -49 19 -54 18 -34 99 30 116 45 13 102
76 102 115 0 23 4 26 35 26 23 0 35 -5 35 -14 0 -20 51 -51 60 -37 4 8 14 6
31 -8 27 -21 70 -19 90 5 6 8 19 14 28 14 14 0 14 -2 1 -10 -10 -7 1 -8 35 -3
28 3 52 10 53 15 2 4 14 8 26 8 39 0 72 43 74 95 3 73 21 89 174 160 34 15 66
24 77 20 11 -3 22 -1 26 5 10 15 55 12 61 -5 4 -8 12 -15 20 -15 8 0 14 -4 14
-10 0 -5 -7 -10 -15 -10 -8 0 -15 -7 -15 -15 0 -8 7 -15 15 -15 8 0 15 -4 15
-10 0 -5 -8 -10 -17 -10 -17 -1 -17 -1 0 -11 15 -9 16 -12 2 -25 -8 -9 -15
-22 -15 -30 0 -8 -6 -14 -12 -14 -7 0 -35 -20 -62 -45 -27 -24 -53 -42 -57
-40 -9 6 -49 -30 -49 -45 0 -7 -7 -10 -15 -6 -11 4 -15 -3 -17 -27 0 -18 0
-39 0 -47 1 -8 3 -28 3 -45 1 -16 5 -32 8 -35 4 -3 26 -30 50 -60 34 -44 42
-60 37 -83 -6 -27 -4 -28 24 -22 17 4 30 2 30 -3 0 -17 -38 -20 -60 -5 -20 14
-24 14 -46 -10 -13 -14 -33 -28 -44 -32 -16 -5 -18 -10 -10 -20 8 -10 4 -11
-22 -6 -18 4 -40 4 -48 0 -8 -4 -22 -10 -32 -13 -10 -3 -19 -21 -23 -46 -8
-46 -2 -53 67 -87 54 -26 75 -92 30 -94 -11 0 -12 -3 -4 -6 7 -2 12 -22 12
-45 0 -35 2 -40 20 -35 16 4 20 0 20 -20 0 -16 7 -27 19 -30 28 -7 64 -79 57
-113 -3 -20 -1 -32 9 -37 24 -14 21 -36 -5 -43 l-25 -7 28 -12 c15 -6 39 -16
55 -23 15 -6 31 -10 35 -9 4 0 16 -3 27 -9 17 -9 18 -19 14 -83 -7 -100 -12
-117 -31 -117 -15 0 -16 -1 -1 -12 9 -7 18 -20 19 -28 5 -30 -14 -106 -37
-149 -13 -24 -24 -52 -24 -62 0 -11 -5 -18 -12 -17 -7 2 -15 -18 -20 -51 -11
-69 -32 -102 -116 -183 -72 -68 -158 -172 -207 -248 -15 -25 -78 -95 -139
-155 -124 -124 -196 -201 -196 -210 0 -21 -127 -146 -208 -205 -89 -64 -146
-134 -137 -168 3 -13 1 -30 -6 -38 -14 -17 -51 -18 -66 -3 -8 8 -17 1 -32 -28
-11 -22 -30 -47 -43 -55 -13 -8 -49 -40 -80 -69 -31 -30 -83 -76 -114 -104
-31 -27 -69 -61 -85 -75 -34 -31 -166 -150 -184 -167 -8 -7 -18 -13 -24 -13
-14 0 -130 -122 -131 -136 0 -7 12 -14 28 -17 71 -13 227 -59 230 -67 2 -6 8
-8 12 -5 5 3 35 -3 66 -14 54 -20 56 -20 39 -2 -16 18 -14 22 51 75 37 31 73
56 79 56 6 0 17 9 25 21 37 52 194 189 217 189 10 0 63 55 64 67 1 8 146 140
188 171 13 9 31 24 40 32 9 8 28 21 41 28 34 17 96 77 145 137 44 55 88 100
155 160 25 22 79 71 120 110 41 38 134 124 205 190 71 66 161 151 199 188 39
39 75 66 82 63 18 -7 55 -69 46 -76 -7 -5 -32 -47 -32 -53 0 -2 18 -12 39 -22
31 -14 46 -15 69 -7 27 9 33 7 66 -25 20 -19 36 -38 36 -42 0 -4 14 -15 30
-25 17 -9 30 -23 29 -29 -4 -33 2 -57 15 -57 7 0 16 -9 19 -20 6 -25 37 -26
98 -5 35 13 49 13 71 4 16 -6 31 -10 33 -7 6 6 -43 120 -54 128 -4 3 -10 13
-14 22 -6 18 7 23 42 19 25 -4 44 8 33 22 -5 6 -12 27 -14 44 -4 32 1 38 31
33 10 -1 12 5 7 22 -20 63 -19 67 10 73 43 10 74 27 74 41 0 8 11 16 24 20 25
6 26 30 2 46 -7 5 -6 12 5 20 8 7 23 26 33 41 16 26 16 30 2 46 -9 10 -16 23
-16 30 0 9 -6 11 -18 5 -9 -4 -45 -8 -79 -10 -34 -1 -68 -6 -75 -10 -14 -9 0
12 35 53 21 24 18 59 -9 100 -17 27 -119 81 -110 58 6 -18 5 -18 -28 -6 -19 8
-23 15 -19 33 4 18 3 20 -6 8 -10 -15 -12 -13 -15 12 0 6 -16 16 -35 21 -27 6
-37 5 -50 -8 -15 -15 -14 -17 4 -32 19 -14 18 -15 -13 -11 -33 5 -63 -14 -42
-27 5 -3 10 -19 10 -36 0 -16 3 -29 8 -29 4 0 12 -11 19 -25 10 -22 9 -25 -8
-25 -10 0 -19 -4 -19 -10 0 -5 -6 -10 -13 -10 -30 0 -47 -82 -27 -134 12 -32
-8 -36 -34 -7 -14 15 -16 29 -12 58 4 24 1 54 -8 80 -8 22 -12 43 -10 46 2 2
-2 10 -11 17 -8 7 -15 21 -15 30 0 29 -11 50 -26 50 -12 0 -13 11 -9 53 5 38
4 48 -4 37 -8 -12 -11 -5 -11 28 0 26 -12 71 -29 110 -34 78 -56 198 -47 254
9 54 32 98 68 127 21 17 27 28 22 43 -4 15 -2 19 7 16 16 -6 49 9 49 22 0 5
-8 11 -17 13 -16 4 -16 5 0 6 26 1 16 25 -12 29 -12 2 -20 9 -18 15 6 16 90
11 127 -8 18 -10 54 -15 100 -14 38 1 76 -3 83 -9 23 -18 87 -22 94 -6 7 19
-23 62 -58 82 -53 31 -32 38 43 16 16 -5 16 -3 3 23 -23 44 -20 56 14 48 17
-3 32 -2 36 5 3 5 10 8 15 5 4 -2 10 6 12 20 3 13 2 22 -3 20 -4 -3 -10 4 -14
15 -3 11 -12 20 -20 20 -7 0 -21 3 -29 6 -12 5 -16 1 -14 -17 2 -13 8 -27 13
-31 6 -4 -12 -7 -40 -6 -27 0 -40 3 -27 5 35 7 28 30 -8 25 -16 -2 -30 0 -30
6 0 5 -9 12 -20 15 -37 10 -23 28 16 21 32 -6 36 -4 32 12 -2 13 -12 19 -30
19 -15 -1 -25 1 -23 4 3 2 0 10 -6 18 -10 11 -1 12 48 9 33 -2 65 -6 70 -9 24
-15 68 -15 94 0 15 9 26 20 23 25 -3 4 3 9 13 10 10 0 23 2 28 3 6 2 15 3 22
4 7 0 17 19 23 42 6 22 20 49 31 60 10 10 15 19 10 19 -16 0 13 46 45 73 16
13 34 22 40 20 7 -2 19 22 30 58 10 34 24 64 31 66 7 3 13 11 13 17 0 7 17 22
39 34 63 36 66 43 46 117 -10 40 -28 77 -45 95 -25 26 -29 40 -32 100 -3 81
-2 90 18 90 8 0 14 4 14 9 0 5 28 11 62 13 54 3 66 0 87 -20 19 -17 22 -25 13
-31 -8 -5 -11 -17 -7 -32 4 -18 -1 -32 -19 -52 -18 -19 -25 -39 -27 -77 -3
-47 -1 -52 31 -75 41 -30 69 -32 100 -5 24 21 100 29 100 10 0 -23 137 -70
218 -73 17 -1 32 -5 32 -8 0 -10 135 -2 156 9 11 6 26 23 34 38 17 32 38 57
99 118 43 43 46 44 99 41 51 -3 57 -6 113 -61 32 -32 59 -66 59 -76 0 -10 5
-18 10 -18 14 0 12 -53 -3 -81 -26 -48 -42 -69 -54 -69 -7 0 -12 -3 -12 -7 5
-29 -4 -31 -103 -26 -57 3 -105 9 -108 13 -3 3 -33 6 -67 5 -34 -1 -61 1 -59
4 2 3 -28 4 -67 2 -50 -2 -66 -6 -52 -11 17 -7 14 -9 -12 -9 -17 -1 -35 -6
-38 -11 -3 -6 -16 -10 -29 -10 -12 0 -26 -4 -31 -8 -6 -4 -35 -16 -65 -26 -82
-28 -113 -48 -203 -131 -11 -11 -34 -29 -49 -41 -15 -12 -41 -47 -57 -79 l-30
-59 20 -28 c11 -15 24 -28 29 -28 5 0 16 -7 25 -16 14 -15 20 -15 42 -3 14 7
29 23 33 35 17 45 73 41 179 -13 58 -30 78 -46 96 -78 12 -22 35 -46 51 -54
16 -8 37 -18 46 -23 10 -4 24 -8 32 -8 7 0 26 -6 41 -14 24 -13 30 -13 43 0 8
8 21 13 28 10 8 -3 14 1 14 8 0 8 11 14 25 14 15 0 25 -6 25 -14 0 -8 7 -14
15 -14 8 0 15 -7 15 -15 0 -8 11 -17 25 -21 l25 -6 -23 -18 c-19 -16 -20 -22
-9 -39 6 -11 12 -29 12 -40 0 -10 7 -21 15 -25 8 -3 15 -10 15 -15 0 -6 11
-22 24 -36 18 -19 30 -24 49 -20 19 5 25 2 29 -13 3 -10 19 -25 37 -33 17 -8
31 -18 31 -22 0 -5 9 -5 20 -2 13 4 22 1 26 -9 4 -11 11 -13 23 -6 11 6 22 5
28 -1 6 -6 19 -5 36 4 25 13 26 16 11 28 -11 9 -14 22 -10 41 3 15 2 28 -3 28
-5 0 -12 12 -16 27 -6 26 -8 27 -20 10 -12 -17 -13 -17 -19 0 -6 14 -9 15 -16
3 -6 -10 -10 -2 -15 26 -10 61 -15 74 -27 71 -16 -3 -19 16 -5 34 15 20 77 36
77 20 0 -6 5 -11 10 -11 6 0 10 16 10 35 0 19 5 35 10 35 6 0 10 -8 8 -17 -2
-14 5 -19 35 -21 29 -3 41 -9 49 -28 22 -47 68 -21 108 61 21 44 18 106 -6
126 -8 6 -14 20 -14 31 0 10 -7 21 -15 24 -8 4 -15 13 -15 20 0 22 -23 26 -55
10 -26 -14 -30 -13 -45 5 -10 10 -23 19 -29 19 -21 0 -8 64 17 85 71 59 109
96 110 107 0 7 3 32 6 55 3 23 1 45 -4 48 -22 14 -9 26 20 20 25 -5 30 -3 30
11 0 13 3 15 11 7 8 -8 8 -22 1 -50 -5 -21 -10 -30 -11 -20 -1 24 -31 22 -31
-3 0 -16 7 -20 30 -20 20 0 30 5 30 15 0 22 6 19 52 -22 22 -21 44 -37 49 -36
7 3 39 -48 39 -62 1 -3 3 -12 7 -22 4 -9 1 -19 -5 -21 -14 -4 -16 -32 -2 -32
5 0 9 -12 8 -27 -1 -16 2 -47 6 -70 5 -30 4 -43 -4 -43 -6 0 -8 -4 -5 -10 3
-5 1 -18 -4 -27 -6 -10 -11 -12 -11 -5 0 6 -5 12 -11 12 -6 0 -9 -7 -6 -15 4
-8 2 -17 -4 -20 -5 -4 -3 -13 6 -21 17 -17 20 -44 5 -44 -5 0 -10 -5 -10 -10
0 -6 11 -8 26 -4 18 5 25 3 20 -4 -12 -19 51 -24 106 -8 29 9 69 20 88 24 l35
8 2 390 c1 214 -1 382 -4 374 -2 -8 -7 -22 -10 -30 -4 -8 -7 -18 -8 -22 -2 -5
-4 -10 -5 -13 -1 -3 -3 -9 -4 -14 -2 -17 -54 -51 -78 -51 -23 0 -63 -34 -54
-48 5 -9 -15 -27 -31 -28 -7 -1 -24 -2 -38 -2 -14 -1 -25 -8 -25 -16 0 -19
-84 -16 -108 5 -13 11 -21 36 -26 82 -6 60 -4 70 18 106 14 22 29 42 35 45 5
3 19 27 31 54 52 114 63 134 74 136 6 2 25 8 42 13 35 11 85 -4 100 -29 5 -8
17 -18 27 -21 10 -4 15 -12 11 -18 -3 -6 8 -24 25 -39 l31 -29 -2 2202 -3
2202 -95 -3 c-68 -2 -105 1 -130 11 -64 28 -116 105 -126 188 -8 71 18 198 52
256 14 25 30 74 36 110 5 37 15 71 22 77 60 59 108 87 174 103 l72 18 0 128 0
129 -24 -29 c-14 -16 -44 -36 -68 -43 -24 -7 -49 -18 -56 -23 -9 -7 -17 -6
-24 1 -7 7 -22 12 -34 12 -13 0 -26 5 -29 11 -4 6 -13 8 -21 5 -7 -3 -20 5
-29 17 -17 24 -20 41 -6 33 9 -6 12 223 3 256 -2 10 -11 18 -18 18 -8 0 -17 6
-20 14 -3 8 -16 17 -30 20 -13 4 -24 10 -24 15 0 12 -59 71 -70 71 -9 0 -28
60 -28 90 -3 94 -31 134 -122 177 -70 34 -190 152 -190 187 0 31 33 63 74 72
17 4 42 15 55 25 13 11 29 19 35 19 6 0 34 15 61 33 28 19 76 42 108 52 33 10
62 25 65 34 3 9 13 23 22 31 9 8 25 30 35 48 11 17 25 32 32 32 13 0 17 11 14
42 -1 9 3 19 9 23 5 3 10 13 10 21 0 12 -225 14 -1690 14 l-1691 0 -13 -32
c-9 -21 -11 -40 -5 -55 8 -21 6 -23 -21 -23 -17 0 -30 -4 -30 -9 0 -8 -105
-15 -180 -12 -13 1 -37 13 -52 28 -15 15 -28 23 -28 17 0 -5 -4 -4 -8 1 -4 6
-25 16 -47 23 -39 12 -41 11 -68 -20 -29 -34 -30 -49 -12 -148 12 -58 6 -112
-16 -153 -12 -23 -28 -53 -35 -67 -8 -14 -11 -32 -9 -41 9 -26 -11 -65 -51
-101 -20 -18 -50 -45 -67 -60 -34 -30 -178 -89 -222 -90 -39 -1 -97 12 -113
25 -21 17 -64 -11 -56 -37 10 -34 10 -37 -9 -49 -15 -10 -21 -8 -32 7 -8 11
-17 17 -21 14 -6 -6 -116 29 -164 51 -14 7 -40 36 -57 64 -29 45 -33 61 -33
119 0 64 -1 68 -25 74 -13 3 -38 2 -54 -4 -19 -7 -44 -7 -75 0 -37 8 -53 19
-83 55 -36 43 -38 51 -38 112 1 54 5 73 28 108 15 24 27 51 27 61 0 31 30 122
40 122 6 0 10 5 10 10 0 6 -108 10 -305 10 -295 0 -305 -1 -305 -19 0 -11 11
-28 23 -38 23 -18 32 -42 43 -108 4 -24 -1 -36 -26 -62 -30 -30 -38 -33 -94
-33 -56 0 -63 3 -95 35 -46 47 -51 109 -14 154 14 17 32 31 39 31 8 0 14 5 14
10 0 6 7 10 15 10 8 0 15 5 15 10 0 7 -828 10 -2465 10 l-2465 0 0 -1700z
m7952 1650 c13 -6 46 -23 73 -38 28 -16 69 -39 92 -51 45 -24 98 -102 104
-151 2 -14 -9 -51 -25 -81 -27 -54 -30 -57 -84 -70 -32 -7 -73 -13 -92 -13
-94 1 -231 75 -280 152 -17 26 -43 46 -86 67 -35 16 -60 32 -56 35 4 3 7 14 7
25 0 11 5 19 10 18 6 0 44 21 85 48 41 26 76 44 78 39 2 -6 13 -5 25 2 12 7
33 14 47 16 13 2 27 5 29 8 8 8 49 4 73 -6z m-5305 -61 c13 -5 32 -16 41 -25
12 -13 27 -15 66 -9 28 3 55 10 61 14 5 5 21 7 35 5 14 -3 40 -6 57 -8 18 -2
38 -8 45 -13 7 -6 22 -14 33 -17 24 -8 65 -69 65 -98 0 -28 -37 -86 -79 -123
-59 -52 -66 -59 -80 -88 -13 -24 -12 -32 9 -77 17 -37 31 -52 49 -56 14 -3 34
-7 44 -9 10 -2 41 2 69 10 44 11 54 11 66 -1 7 -8 21 -18 31 -23 25 -14 74
-109 68 -133 -6 -21 39 -101 53 -93 4 2 13 -6 20 -20 11 -20 10 -26 -4 -40
-15 -16 -22 -65 -17 -128 1 -16 -3 -34 -9 -42 -7 -8 -9 -19 -6 -24 9 -14 -39
-58 -71 -65 -46 -11 -90 19 -219 148 -66 67 -133 130 -149 142 -23 18 -28 31
-34 88 -7 67 -18 86 -52 86 -9 0 -22 7 -29 15 -7 8 -23 15 -36 15 -15 0 -42
17 -71 45 -25 25 -48 45 -51 45 -4 0 -162 78 -211 105 -13 8 -28 21 -33 29 -5
9 -17 16 -26 16 -17 0 -59 46 -79 85 -11 24 -5 125 8 125 5 0 9 6 9 14 0 8 7
16 15 20 8 3 15 12 15 19 0 24 37 48 79 54 23 3 44 10 47 14 7 12 240 10 271
-2z m7030 -83 c20 -21 30 -41 27 -51 -4 -8 -1 -15 6 -15 18 0 4 -47 -28 -92
-37 -52 -74 -52 -135 0 -71 60 -88 135 -39 170 60 43 122 38 169 -12z m-5258
-61 c105 -94 181 -179 181 -204 0 -13 3 -21 6 -18 4 3 20 -12 35 -33 16 -22
36 -40 43 -40 8 0 22 -8 32 -17 9 -9 24 -18 33 -19 30 -4 57 -12 95 -28 21 -9
49 -16 62 -16 13 0 24 -4 24 -10 0 -5 9 -10 20 -10 25 0 80 -39 80 -56 0 -6
17 -14 38 -17 37 -6 73 -14 82 -18 3 -1 39 -1 80 0 67 2 82 -1 134 -28 37 -20
73 -31 98 -31 67 0 120 -21 186 -74 61 -49 66 -55 63 -87 -2 -20 63 -89 84
-89 8 0 15 5 15 10 0 6 9 10 20 10 11 0 33 14 48 31 24 27 32 30 64 24 91 -17
140 -133 88 -206 -11 -14 -25 -26 -32 -27 -45 -6 -192 -6 -200 -1 -12 8 -86
-30 -136 -70 -72 -57 -111 -71 -193 -71 -42 0 -91 3 -108 6 -45 9 -118 78
-132 124 -7 24 -35 63 -76 104 -42 44 -76 90 -99 138 -67 140 -78 150 -156
142 -43 -4 -62 -2 -81 11 -29 18 -232 49 -287 42 -19 -2 -50 0 -67 5 -28 8
-35 16 -48 61 -11 39 -30 68 -71 111 -30 32 -62 72 -70 87 -8 16 -19 29 -24
29 -5 0 -12 11 -16 24 -3 13 -14 26 -25 29 -11 3 -19 14 -19 25 0 12 -4 24
-10 27 -15 9 -12 37 8 75 24 48 53 79 67 74 6 -3 17 1 23 8 5 7 30 13 53 13
36 0 51 -7 88 -40z m-3704 -20 c11 -5 24 -15 28 -22 5 -7 12 -11 17 -8 5 3 11
1 15 -5 3 -5 21 -10 39 -10 18 0 46 -4 62 -9 65 -21 113 -22 134 -1 11 11 24
20 29 20 5 0 14 6 21 14 17 21 130 11 138 -12 2 -7 7 -10 12 -7 4 3 6 -4 3
-14 -3 -13 2 -21 16 -26 18 -5 21 -14 21 -56 0 -28 -4 -48 -9 -45 -5 3 -9 -4
-9 -17 0 -56 -13 -152 -22 -161 -6 -6 -10 -17 -10 -26 0 -10 -19 -25 -47 -39
-111 -51 -232 -1 -233 97 -1 35 -30 69 -77 88 -64 27 -91 30 -198 20 -96 -9
-136 10 -148 72 -8 39 -5 48 19 83 15 21 31 39 36 39 5 0 7 4 4 9 -6 10 22 25
41 22 6 -1 14 3 17 7 6 9 64 1 101 -13z m915 -297 c0 -21 53 -56 94 -62 25 -4
46 -11 46 -17 0 -5 12 -9 28 -9 15 0 36 -7 46 -15 11 -8 31 -15 45 -15 34 0
121 -45 143 -73 10 -13 15 -32 12 -47 -4 -21 0 -28 28 -40 18 -8 57 -15 87
-14 32 0 46 -3 35 -7 -15 -6 -16 -8 -3 -8 9 -1 26 8 39 19 13 11 31 20 40 20
9 0 31 14 49 32 26 26 40 31 78 31 31 0 50 -5 58 -16 8 -11 27 -17 54 -17 23
0 41 -5 41 -11 0 -6 9 -18 19 -27 24 -21 33 -82 16 -105 -6 -9 -27 -20 -46
-23 -62 -12 -99 -39 -99 -72 0 -12 -25 -41 -62 -74 -105 -89 -120 -118 -129
-244 -7 -106 -21 -136 -90 -189 -95 -72 -167 -68 -250 15 -27 27 -49 55 -49
62 0 19 -69 83 -105 97 -35 13 -105 73 -105 88 0 6 -7 16 -15 23 -10 9 -12 17
-5 30 5 9 7 20 4 23 -6 6 14 43 40 74 12 14 16 28 11 40 -4 10 -9 77 -11 148
l-5 130 -52 47 c-29 25 -69 52 -90 59 -43 14 -50 22 -52 57 -1 26 65 82 97 82
10 0 18 4 18 8 0 4 9 8 20 8 11 0 20 -4 20 -8z m7175 -21 c17 -6 36 -17 43
-24 7 -7 22 -13 33 -13 11 0 22 -7 25 -15 4 -8 15 -15 25 -15 10 0 19 -4 19
-10 0 -5 6 -8 13 -5 16 5 139 -138 152 -178 6 -18 16 -42 23 -55 7 -12 10 -27
7 -32 -3 -5 -2 -11 3 -14 7 -4 8 -33 4 -96 -2 -22 -7 -25 -47 -28 -25 -1 -45
2 -45 8 0 5 -11 10 -25 10 -14 0 -25 4 -25 9 0 5 -19 16 -42 24 -24 8 -42 19
-41 26 2 6 -8 13 -22 17 -13 3 -29 12 -36 20 -6 8 -21 14 -33 14 -17 0 -18 2
-6 10 17 11 16 12 -25 15 -52 5 -85 -5 -85 -25 0 -10 4 -21 9 -24 5 -3 16 -29
26 -58 14 -45 15 -58 4 -93 -7 -22 -16 -44 -21 -49 -4 -6 -8 -20 -8 -32 0 -12
-4 -24 -8 -26 -4 -1 -17 -17 -29 -33 -13 -19 -40 -37 -73 -49 -46 -17 -58 -17
-108 -6 -83 18 -100 29 -127 78 -33 58 -32 97 5 170 17 34 30 65 30 70 0 4 11
18 25 30 35 31 46 66 44 137 -4 114 -1 163 11 185 12 22 82 58 135 70 40 8
133 1 170 -13z m-5038 -207 l33 0 -17 -42 c-9 -24 -26 -51 -36 -60 -20 -18
-23 -19 -49 -22 -8 -1 -15 -22 -18 -56 -5 -58 -16 -84 -30 -75 -33 20 -13
-129 24 -185 36 -54 41 -103 16 -156 -12 -24 -26 -44 -32 -44 -5 0 -16 -6 -24
-14 -33 -34 -177 19 -190 69 -3 14 -10 25 -15 25 -15 0 -10 125 6 157 8 17 31
41 50 54 53 36 48 65 -25 139 -33 34 -62 71 -65 81 -4 11 -11 19 -16 19 -13 0
-11 33 4 54 9 13 31 18 85 21 40 3 78 8 85 12 6 4 22 8 36 9 13 2 29 8 35 14
7 8 29 10 61 6 28 -3 65 -6 82 -6z m5785 -41 c40 -10 138 -99 138 -123 0 -8 7
-27 15 -42 23 -45 19 -81 -15 -117 -16 -18 -30 -35 -30 -39 0 -13 -83 -30
-118 -24 -53 8 -110 39 -123 66 -7 14 -20 33 -27 42 -9 11 -17 49 -19 96 -5
73 -3 80 22 110 14 17 32 29 39 26 8 -3 17 -1 21 5 8 14 49 14 97 0z m493 -79
c8 0 21 -8 30 -17 13 -13 35 -16 99 -16 44 1 86 -2 91 -6 6 -4 26 -8 45 -9 28
-2 63 -13 89 -29 12 -7 10 -77 -3 -104 -9 -18 -16 -38 -16 -46 0 -8 -5 -11
-12 -7 -8 5 -9 2 -5 -9 4 -11 1 -17 -8 -17 -17 0 -31 -40 -17 -49 10 -6 24
-48 26 -80 1 -9 8 -31 16 -49 11 -23 20 -32 33 -28 10 2 17 -1 17 -9 0 -8 -8
-16 -17 -18 -10 -3 -2 -5 18 -6 30 -1 37 -5 41 -25 4 -18 -1 -27 -16 -34 -28
-14 -86 -21 -86 -10 0 4 -8 8 -17 7 -11 0 -13 -3 -5 -6 6 -2 12 -11 12 -18 0
-7 -6 -16 -12 -18 -8 -3 -6 -6 5 -6 9 -1 17 -5 17 -11 0 -5 7 -10 15 -10 8 0
15 -7 15 -15 0 -14 18 -54 30 -65 3 -3 11 -17 17 -32 10 -21 9 -29 -3 -38 -8
-7 -14 -25 -14 -41 0 -61 -50 -129 -95 -129 -11 0 -29 -3 -40 -5 -13 -4 -31 4
-49 20 -16 14 -35 25 -42 25 -18 0 -44 40 -44 68 0 12 7 37 15 55 14 31 22 45
58 99 22 34 22 59 -2 65 -24 6 -26 62 -3 80 15 11 15 14 2 22 -8 6 -12 13 -8
16 6 7 -9 30 -49 72 -13 13 -23 28 -23 32 0 5 -6 14 -14 20 -13 11 -30 64 -27
86 1 11 -80 65 -97 65 -7 0 -21 20 -33 45 -16 34 -20 59 -17 98 5 56 32 101
56 92 8 -3 20 -5 27 -5z m-2232 -41 c50 -12 77 -33 96 -74 44 -91 51 -143 26
-185 -8 -14 -18 -33 -21 -43 -9 -26 -104 -67 -153 -67 -23 0 -41 4 -41 8 0 4
-14 13 -31 19 -19 8 -34 23 -42 42 -6 17 -15 31 -18 31 -18 0 -30 73 -23 142
5 55 13 81 32 106 22 29 29 32 79 32 30 0 73 -5 96 -11z m1747 -314 c5 -3 10
-11 10 -17 0 -5 9 -21 19 -35 11 -13 17 -31 14 -39 -3 -8 0 -21 7 -29 7 -9 10
-26 5 -42 -7 -31 -52 -83 -71 -83 -7 0 -14 -5 -16 -11 -5 -15 -98 12 -98 28 0
7 -6 13 -14 13 -18 0 -24 34 -24 125 -1 91 4 103 36 107 30 3 117 -8 132 -17z
m-6570 -665 c3 -5 17 -13 32 -19 18 -7 34 -26 48 -58 21 -47 21 -48 3 -83 -10
-19 -29 -39 -41 -45 -12 -5 -22 -13 -22 -17 0 -5 -18 -8 -40 -8 -22 0 -40 5
-40 10 0 6 -9 10 -20 10 -21 0 -130 100 -130 119 0 6 5 21 12 34 6 12 14 29
18 37 4 8 17 16 29 18 11 2 21 8 21 14 0 13 122 1 130 -12z m2485 -6 c40 -19
73 -59 108 -134 24 -52 33 -120 15 -120 -5 0 -8 -4 -8 -10 0 -25 -57 -131 -72
-136 -10 -3 -18 -10 -18 -15 0 -5 -15 -24 -34 -41 -28 -25 -44 -32 -90 -35
-44 -3 -57 -1 -62 11 -3 9 -12 16 -19 16 -21 0 -65 41 -65 61 0 10 -4 19 -10
19 -32 0 -17 213 21 299 12 25 33 58 47 73 24 23 35 27 90 27 39 1 77 -5 97
-15z m4010 -889 c21 -19 43 -31 48 -28 6 4 8 0 4 -11 -4 -9 -1 -19 6 -21 8 -4
11 -23 9 -59 -3 -50 -7 -57 -40 -80 -91 -62 -224 -10 -217 83 2 19 -1 45 -5
57 -15 39 60 90 136 93 12 1 38 -15 59 -34z m-905 -75 c19 -5 50 -27 69 -47
22 -25 36 -33 39 -25 3 10 8 10 21 -3 9 -9 31 -25 50 -36 30 -18 32 -23 27
-54 -4 -20 -2 -35 4 -37 7 -2 9 -14 5 -31 -6 -23 -13 -27 -44 -28 -20 -1 -40
0 -46 1 -5 1 -22 3 -37 3 -17 0 -28 6 -28 14 0 22 -20 15 -30 -11 -5 -14 -18
-30 -30 -36 -11 -6 -18 -15 -15 -21 4 -5 -1 -9 -9 -9 -9 0 -16 -9 -16 -20 0
-11 -5 -20 -11 -20 -6 0 -9 -7 -5 -15 3 -8 1 -15 -4 -15 -6 0 -10 -9 -10 -19
0 -10 -7 -21 -15 -25 -9 -3 -20 -16 -25 -28 -5 -13 -9 -17 -9 -11 -1 7 -14 0
-29 -16 -28 -30 -55 -37 -134 -33 -31 2 -39 6 -44 27 -7 28 29 115 47 115 12
0 44 30 44 41 0 4 3 11 8 15 4 4 7 2 7 -4 0 -7 5 -12 10 -12 6 0 10 17 8 40
-1 22 -6 40 -10 40 -4 0 -8 6 -8 14 0 8 -6 16 -14 19 -11 4 -12 14 -3 51 6 25
14 46 19 46 4 0 8 12 8 28 0 18 14 41 41 70 36 38 45 42 87 42 26 0 63 -4 82
-10z m-7408 -99 c59 -49 99 -99 109 -134 6 -22 21 -57 35 -78 13 -21 24 -41
24 -43 0 -3 11 -17 25 -32 14 -15 29 -43 35 -63 5 -20 16 -45 24 -56 19 -25
21 -117 4 -147 -42 -72 -83 -90 -167 -72 -72 15 -145 54 -211 115 -29 27 -63
55 -75 63 -12 8 -37 45 -56 83 -18 37 -37 70 -41 71 -11 5 -10 132 1 132 5 0
15 20 22 44 8 29 22 49 41 61 15 9 28 20 28 26 0 5 6 9 13 9 6 0 23 9 36 19
32 24 125 25 153 2z m-380 -104 c2 -16 9 -21 24 -20 24 3 44 -35 41 -73 -2
-25 -50 -77 -75 -81 -37 -6 -68 -5 -93 1 -19 6 -28 3 -32 -8 -10 -26 -70 -20
-95 9 -24 27 -28 45 -12 45 6 0 10 6 10 13 0 15 47 67 60 67 6 0 10 6 10 13 0
16 77 51 108 49 14 -1 22 4 22 14 0 24 28 -1 32 -29z m7983 -276 c49 -9 106
-61 98 -90 -6 -23 24 -71 44 -71 8 0 11 -4 8 -10 -3 -5 3 -10 14 -10 18 0 21
-6 21 -39 0 -21 -7 -58 -16 -82 -17 -48 -26 -129 -14 -129 4 0 10 -15 14 -32
3 -18 20 -46 36 -63 23 -24 32 -44 37 -83 3 -29 10 -52 14 -52 5 0 9 -9 9 -20
0 -11 5 -20 11 -20 10 0 8 -41 -4 -70 -3 -8 -11 -33 -17 -55 -21 -78 -68 -104
-191 -105 -48 0 -64 5 -104 33 -38 26 -51 42 -61 77 -24 79 -16 204 16 270 4
8 4 24 -1 35 l-8 20 -1 -20 c-1 -13 -4 -15 -7 -7 -3 8 -1 24 5 35 26 55 23 67
-33 120 -67 66 -83 113 -66 205 16 86 37 126 80 151 39 22 55 24 116 12z m627
-391 c11 0 22 -8 25 -20 3 -11 20 -27 37 -35 31 -15 40 -38 38 -100 -4 -149
-4 -147 -42 -163 -19 -8 -64 -16 -100 -17 -36 -1 -83 -8 -106 -15 -37 -11 -46
-10 -105 14 -36 14 -71 26 -77 26 -17 0 -18 31 -3 95 8 33 18 76 23 95 5 24
19 42 43 58 41 26 53 27 77 6 16 -16 20 -14 61 18 43 36 72 49 95 42 8 -2 23
-4 34 -4z m888 -1230 c15 -8 17 -15 9 -50 -5 -22 -9 -59 -10 -83 -1 -82 -6
-93 -40 -91 -18 1 -43 14 -59 29 -26 25 -28 32 -23 73 9 70 45 117 101 131 2
1 12 -3 22 -9z m-2018 -821 c12 -6 36 -28 55 -48 30 -33 33 -42 33 -99 0 -50
-7 -78 -31 -130 -17 -37 -34 -69 -38 -72 -5 -3 -16 -20 -26 -39 -17 -35 -17
-35 8 -55 14 -12 51 -36 81 -55 31 -20 62 -48 71 -65 8 -17 33 -49 55 -71 22
-22 40 -45 40 -52 0 -20 -33 -68 -65 -95 -63 -52 -166 -63 -277 -28 -34 11
-70 20 -79 20 -30 0 -110 41 -103 52 5 7 1 9 -9 5 -11 -4 -17 -1 -17 7 0 8 -5
16 -11 18 -7 2 2 17 19 33 17 15 33 43 36 60 4 17 31 71 62 120 l55 89 -22 94
c-17 73 -21 112 -16 175 5 80 6 83 44 114 41 35 94 44 135 22z m-882 -378 c14
-15 30 -40 35 -56 6 -17 15 -30 20 -31 6 0 18 -4 28 -9 15 -6 16 -10 5 -16
-10 -7 -10 -9 2 -9 12 0 13 -2 1 -9 -11 -7 -9 -14 13 -37 14 -16 26 -39 26
-52 0 -34 -35 -96 -65 -116 -15 -10 -24 -20 -21 -23 14 -15 -73 -51 -136 -58
-37 -3 -70 -11 -73 -16 -4 -5 -15 -9 -26 -9 -11 0 -17 -4 -14 -10 3 -5 1 -10
-4 -10 -6 0 -11 -7 -11 -15 0 -10 -11 -15 -35 -15 -36 0 -39 4 -35 52 1 15 -5
40 -14 55 -23 43 -37 106 -26 117 14 14 12 34 -2 39 -7 2 -2 2 12 0 13 -3 29
-5 35 -6 5 -1 10 5 10 13 0 8 3 17 7 20 4 3 8 33 9 65 2 69 24 115 54 115 12
0 26 5 33 12 17 17 104 44 127 39 11 -2 31 -16 45 -30z m715 -910 c11 -9 105
-23 143 -22 26 1 27 -2 7 -22 -12 -13 -7 -21 47 -68 34 -30 59 -46 55 -36 -5
15 -2 16 21 11 34 -9 85 -46 56 -41 -10 1 -24 6 -30 9 -5 4 -27 3 -47 -1 -20
-5 -38 -6 -41 -3 -4 3 -6 -2 -6 -11 0 -9 5 -19 10 -22 15 -10 12 -35 -5 -35
-8 0 -15 -7 -15 -15 0 -13 -13 -20 -23 -12 -2 1 -11 -4 -21 -12 -15 -12 -15
-16 -1 -37 19 -29 19 -34 0 -34 -20 0 -19 -17 3 -30 11 -8 12 -10 2 -7 -8 2
-24 20 -35 41 -19 36 -19 38 -1 51 18 13 18 15 -4 44 -13 20 -30 31 -45 31
-32 0 -38 -13 -20 -46 8 -16 15 -22 15 -14 0 9 5 7 16 -8 19 -28 10 -67 -14
-56 -10 4 -30 9 -47 12 -16 3 -33 10 -37 16 -5 7 -8 3 -9 -9 -1 -11 -5 -2 -9
20 -8 35 -6 43 13 59 12 10 22 22 22 26 0 5 3 12 7 15 4 4 1 20 -7 35 -10 20
-25 30 -51 35 -23 4 -33 10 -25 14 6 4 9 16 6 27 -6 18 -6 18 8 1 8 -10 19
-16 24 -15 14 5 73 -49 73 -66 0 -9 6 -16 13 -16 9 0 12 9 9 30 -4 31 -58 80
-87 80 -9 0 -28 9 -42 20 -14 11 -34 20 -44 20 -14 0 -18 7 -17 25 2 23 18 37
18 15 0 -5 4 -10 10 -10 5 0 7 7 3 16 -5 14 1 15 43 9 26 -3 53 -10 59 -14z"/>
<path d="M6212 12462 c-18 -35 -45 -62 -107 -109 -92 -69 -113 -107 -68 -124
13 -5 30 -9 38 -9 7 0 15 -7 19 -15 7 -20 34 -19 79 4 50 26 71 55 87 124 15
63 50 106 125 152 l40 24 -95 1 -95 0 -23 -48z"/>
<path d="M10642 12483 c-1 -16 -9 -33 -17 -39 -19 -15 -21 -76 -1 -68 9 4 15
-7 19 -38 3 -24 2 -44 -4 -46 -15 -6 -10 -62 7 -69 8 -3 13 -12 10 -19 -3 -8
0 -14 6 -14 7 0 9 -13 5 -35 -5 -31 -3 -37 23 -50 15 -8 46 -17 69 -21 l41 -7
0 217 0 216 -78 0 c-78 0 -78 0 -80 -27z"/>
<path d="M10638 11759 c-30 -17 -11 -115 31 -160 15 -16 29 -20 72 -17 l54 3
3 83 c3 81 2 82 -23 92 -34 13 -115 12 -137 -1z"/>
<path d="M590 8595 c-6 -7 -13 -28 -16 -47 -7 -40 27 -96 70 -116 24 -12 30
-12 47 4 21 19 26 83 8 101 -6 6 -16 22 -23 34 -13 28 -70 43 -86 24z"/>
<path d="M970 8020 c-22 -17 -25 -26 -25 -82 1 -35 4 -94 7 -131 8 -84 -8
-123 -67 -161 -22 -14 -52 -35 -68 -48 -20 -16 -44 -23 -90 -26 -54 -3 -65 -1
-88 20 -40 35 -66 48 -100 48 -39 0 -97 27 -109 51 -8 14 -16 16 -41 9 -17 -5
-46 -21 -64 -35 -47 -35 -84 -48 -100 -35 -20 17 -139 17 -159 1 -9 -7 -25
-11 -36 -8 l-20 5 0 -1539 c1 -1508 1 -1539 20 -1539 28 0 72 21 100 48 35 34
58 41 143 43 45 1 74 6 75 13 1 6 4 26 6 44 4 36 16 56 16 29 0 -9 7 -17 16
-17 8 0 12 5 9 10 -3 6 -2 10 4 10 13 0 24 55 16 80 -3 11 -12 20 -18 20 -7 0
-29 9 -50 20 -20 11 -43 20 -51 20 -8 0 -16 7 -20 15 -3 8 -17 15 -31 15 -18
0 -25 5 -25 19 0 30 -39 49 -82 39 -37 -7 -87 4 -98 22 -3 5 -4 27 -2 50 3 31
8 40 23 40 10 0 22 7 27 16 10 18 40 21 95 11 30 -7 37 -5 37 8 0 9 8 19 17
22 23 9 43 29 43 42 0 6 9 11 20 11 11 0 20 4 20 9 0 5 16 9 36 9 20 0 41 5
47 11 6 6 19 11 29 11 10 0 21 7 24 15 4 8 11 15 18 15 6 0 17 9 24 20 7 11
18 20 26 20 7 0 36 23 64 50 47 47 82 63 82 40 0 -5 15 -10 33 -10 24 0 28 -3
17 -10 -12 -8 -12 -10 5 -10 40 -1 63 -38 70 -110 2 -25 15 -40 35 -40 24 0
53 -42 53 -76 0 -14 2 -22 6 -17 12 18 41 23 41 8 0 -8 -7 -15 -15 -15 -21 0
-19 -20 3 -21 10 0 12 -3 5 -6 -15 -6 -17 -39 -3 -48 6 -3 10 -16 11 -28 0
-12 3 -16 6 -9 2 6 11 12 19 12 8 0 14 4 14 9 0 12 69 81 81 81 4 0 6 7 3 15
-4 8 -1 15 7 15 7 0 9 3 6 7 -4 3 -2 12 3 18 7 8 5 26 -5 54 -13 39 -13 43 5
59 26 21 25 30 -2 35 -20 4 -20 4 4 6 34 1 89 51 105 94 6 17 12 26 12 20 1
-9 18 -13 51 -13 36 0 50 -4 50 -14 0 -7 10 -16 23 -20 35 -9 47 -7 47 8 0 21
27 26 100 17 36 -4 89 -7 117 -7 29 1 55 -3 57 -9 2 -5 5 -4 5 3 1 17 31 15
31 -3 0 -8 14 -17 34 -21 39 -7 96 3 96 17 0 5 17 9 38 10 28 0 32 2 17 8 -17
7 -15 9 15 16 19 4 30 10 23 12 -9 3 -9 9 -2 22 8 12 21 16 45 13 29 -4 34 -8
32 -31 -4 -61 1 -81 20 -74 26 10 30 22 25 63 -3 22 -1 40 6 44 17 11 13 34
-6 39 -17 4 -17 5 0 6 9 0 17 6 17 11 0 6 7 10 15 10 8 0 15 3 16 8 5 49 16
63 33 39 18 -24 33 -21 38 8 3 14 1 22 -4 19 -6 -4 -8 9 -7 29 2 20 0 39 -4
43 -4 4 -7 16 -7 26 0 14 8 18 41 18 33 0 47 6 65 28 13 15 24 30 24 34 0 4
10 10 22 14 12 3 31 15 42 25 24 23 59 24 116 4 24 -8 48 -14 54 -14 6 1 26
-4 44 -11 25 -9 32 -17 29 -31 -3 -11 0 -16 8 -13 18 7 31 -16 14 -26 -10 -7
-10 -11 0 -24 8 -9 20 -16 27 -16 10 0 11 -6 4 -25 -9 -24 8 -55 31 -55 5 0 9
-11 9 -25 0 -14 4 -25 9 -25 11 0 25 -48 22 -74 -2 -10 1 -16 6 -13 5 3 15
-11 22 -31 16 -44 68 -102 92 -102 10 0 21 -5 24 -10 8 -14 46 -3 62 18 11 13
13 13 19 -4 20 -57 35 -86 40 -81 3 3 2 12 -2 19 -9 14 -10 19 -12 55 -1 12
-9 28 -17 37 -9 8 -15 19 -14 23 1 4 -1 15 -4 23 -41 98 -57 164 -57 237 0 43
5 84 10 89 18 18 -7 62 -47 83 -49 25 -74 68 -80 139 -11 122 34 194 147 237
39 15 72 31 76 36 3 6 -23 9 -64 8 -136 -3 -186 28 -313 191 -83 107 -138 169
-215 245 -33 33 -70 76 -82 95 -21 35 -215 223 -275 267 -17 13 -37 23 -45 23
-7 0 -10 5 -7 10 4 6 -7 10 -24 10 -17 0 -31 4 -31 9 0 5 -17 7 -37 5 -87 -11
-123 -10 -123 3 0 24 48 44 119 50 39 3 71 9 71 14 0 4 -16 29 -36 54 -44 58
-64 113 -64 176 0 34 -5 51 -17 57 -24 14 -9 41 27 49 18 3 43 20 60 41 29 36
34 36 99 16 21 -6 23 -5 16 15 -5 17 0 30 18 49 13 15 35 46 48 70 26 48 20
72 -22 84 -13 4 -44 12 -67 19 -58 17 -72 7 -97 -68 -23 -70 -46 -107 -88
-142 -45 -38 -117 -71 -157 -71 -52 0 -129 50 -195 124 -32 36 -65 66 -75 66
-10 0 -40 18 -68 40 -46 37 -53 40 -73 28 -17 -10 -23 -10 -26 0 -3 6 -11 12
-18 12 -24 0 -54 51 -81 134 -14 44 -32 91 -40 104 -18 27 -51 28 -84 2z m510
-1952 c0 -5 -7 -8 -15 -8 -8 0 -15 -4 -15 -10 0 -5 14 -10 30 -10 l30 0 1 -62
c0 -35 6 -76 12 -93 18 -45 60 -105 75 -105 8 0 10 -9 6 -27 -10 -41 -10 -41
-59 -49 -25 -3 -48 -10 -51 -15 -3 -5 -16 -9 -30 -9 -14 0 -24 -6 -24 -14 0
-12 -16 -14 -77 -12 -52 2 -77 7 -75 15 1 6 -4 11 -11 11 -28 0 -55 44 -55 88
1 34 4 42 19 42 11 0 19 7 19 15 0 9 9 15 25 15 17 0 25 6 25 17 0 13 3 14 12
5 16 -16 28 -15 28 3 0 8 5 15 10 15 6 0 10 7 10 15 0 8 5 15 11 15 7 0 8 11
4 30 -4 20 -3 30 5 30 12 0 11 20 -6 77 -5 18 -3 21 15 16 17 -4 20 -2 15 11
-4 12 0 16 15 16 12 0 21 5 21 12 0 12 29 -21 30 -34z"/>
<path d="M4266 7905 c-11 -8 -17 -22 -14 -33 7 -27 -31 -66 -84 -86 -50 -18
-61 -34 -52 -72 6 -24 37 -33 48 -15 7 11 76 44 125 60 19 6 65 11 102 11 38
0 69 4 69 8 0 9 -67 74 -118 115 -38 31 -49 32 -76 12z"/>
<path d="M6508 7711 c-48 -27 -187 -141 -188 -153 0 -18 -20 -6 -20 11 0 11 5
23 10 26 14 8 13 38 -2 53 -17 17 -39 1 -103 -80 -78 -98 -226 -241 -278 -268
-23 -12 -59 -31 -79 -42 -21 -11 -42 -17 -47 -13 -11 6 -4 63 10 80 4 6 11 56
15 112 6 95 6 101 -14 112 -30 16 -53 14 -77 -9 -15 -14 -38 -21 -81 -23 -33
-2 -65 -7 -72 -11 -6 -3 -21 -5 -34 -2 -14 2 -33 -4 -47 -15 -19 -15 -23 -28
-23 -64 1 -33 -5 -52 -23 -74 -14 -16 -25 -33 -25 -38 0 -13 -40 -48 -64 -57
-22 -7 -87 11 -98 28 -5 8 -13 7 -28 -1 -26 -17 -30 -16 -30 3 0 14 -9 16 -62
10 -73 -9 -78 -11 -78 -37 0 -15 -7 -19 -36 -19 -20 0 -33 -4 -29 -9 9 -15
-27 -30 -57 -24 -30 6 -39 -8 -52 -77 l-6 -35 198 0 c234 0 233 1 361 -124
102 -99 118 -102 243 -41 83 39 173 67 383 119 61 15 117 31 125 36 8 6 37 12
64 15 46 5 51 8 71 47 11 23 33 51 48 63 48 38 307 428 307 462 -1 19 -30 56
-30 37 0 -9 -3 -10 -8 -3 -9 12 -61 33 -82 31 -8 0 -36 -12 -62 -26z"/>
<path d="M2577 7704 c-23 -82 -16 -162 29 -310 21 -70 28 -83 50 -88 14 -4 29
-4 34 -1 18 11 11 85 -22 240 -5 28 -23 67 -39 87 -16 20 -29 43 -29 50 0 7
-4 19 -9 27 -7 11 -10 10 -14 -5z"/>
<path d="M3310 7574 c-5 -16 -15 -37 -20 -46 -21 -37 -17 -45 126 -237 35 -47
77 -102 92 -121 16 -19 55 -71 86 -115 32 -44 67 -84 79 -89 49 -18 339 -100
442 -123 153 -35 160 -34 241 17 38 24 117 68 177 97 59 29 107 56 107 62 0
17 -131 91 -162 91 -10 0 -26 -13 -36 -29 -15 -26 -24 -32 -60 -41 -4 -1 -13
-6 -20 -12 -7 -6 -50 -15 -95 -19 -69 -6 -93 -4 -153 13 -59 17 -82 30 -135
79 -35 32 -69 59 -74 59 -22 0 -117 95 -145 144 -33 57 -36 80 -16 128 17 41
44 156 38 162 -8 9 -32 -6 -32 -20 0 -7 -12 -21 -27 -31 -16 -10 -34 -26 -41
-35 -19 -26 -34 -22 -72 17 -40 41 -110 64 -217 72 l-72 6 -11 -29z"/>
<path d="M4580 6633 c0 -80 12 -154 26 -160 19 -7 108 41 164 89 52 45 60 58
35 58 -9 0 -48 11 -88 25 -39 14 -87 28 -104 31 l-33 5 0 -48z"/>
<path d="M3007 6599 c-3 -12 3 -35 14 -52 10 -18 19 -50 19 -72 0 -24 10 -57
25 -82 18 -33 22 -52 18 -79 l-6 -37 44 9 c24 5 166 9 316 9 l272 0 35 34 c20
19 36 39 36 44 0 5 11 22 25 39 49 58 33 68 -70 43 -85 -21 -140 -19 -252 9
-54 14 -152 37 -218 53 -95 22 -127 34 -155 58 -19 16 -36 33 -38 38 -2 4 -16
7 -32 7 -20 0 -29 -6 -33 -21z"/>
<path d="M4275 6190 c-11 -5 -32 -9 -46 -9 -15 -1 -32 -7 -38 -15 -16 -19
-130 -44 -241 -52 -52 -3 -106 -10 -120 -16 -14 -5 -27 -9 -30 -8 -3 1 -11
-15 -17 -35 -7 -20 -20 -43 -28 -51 -8 -9 -15 -20 -15 -25 0 -5 -5 -9 -12 -9
-6 0 -19 -7 -28 -15 -15 -14 -53 -20 -260 -45 -252 -29 -410 -64 -410 -89 0
-5 12 -19 27 -31 l28 -22 -43 -36 c-43 -37 -54 -68 -28 -78 8 -3 22 -23 30
-45 9 -21 19 -39 24 -39 4 0 9 -17 10 -37 2 -21 7 -40 11 -43 11 -7 51 -99 51
-116 0 -8 4 -14 8 -14 10 0 33 -62 26 -69 -3 -3 -9 1 -14 9 -7 12 -10 12 -16
-3 -3 -10 -4 -20 -1 -24 11 -11 -23 -34 -45 -31 -16 2 -22 9 -20 21 3 15 0 17
-17 8 -31 -17 -72 -14 -65 4 4 9 0 15 -10 15 -12 0 -14 -9 -11 -41 2 -22 9
-46 15 -54 8 -10 7 -14 -2 -18 -8 -4 -9 -8 -3 -14 6 -4 19 -35 31 -68 18 -51
24 -60 52 -67 18 -5 42 -18 52 -28 11 -11 26 -20 33 -21 6 0 3 -4 -8 -9 -13
-5 15 -9 79 -11 l98 -4 -6 49 c-3 26 -9 53 -14 60 -9 11 -22 85 -25 139 -1 25
-17 40 -17 15 0 -6 -3 -8 -7 -5 -3 4 3 17 14 30 21 23 36 77 22 77 -5 0 -9 17
-9 38 0 20 -4 44 -10 52 -5 9 -5 19 2 27 6 7 8 29 5 48 -5 29 -3 35 12 35 14
0 20 11 24 44 10 72 39 108 114 146 37 19 75 42 85 52 23 23 45 14 26 -10 -6
-10 -17 -22 -24 -27 -9 -8 -8 -13 1 -21 15 -14 29 -4 75 56 19 25 42 53 50 63
17 21 130 104 170 126 109 58 376 126 482 123 10 0 20 4 24 9 17 28 7 120 -13
118 -5 0 -17 -4 -28 -9z"/>
<path d="M4880 5950 c-19 -5 -132 -12 -251 -14 -235 -4 -237 -5 -301 -67 -45
-44 -90 -75 -103 -70 -15 5 -38 9 -52 10 -7 1 -13 8 -13 16 0 8 -13 21 -29 29
-26 14 -32 13 -88 -13 -33 -16 -67 -38 -74 -48 -8 -11 -22 -22 -31 -26 -10 -3
-18 -13 -18 -22 0 -8 -5 -15 -11 -15 -5 0 -7 -5 -4 -11 5 -7 -5 -8 -32 -4 -21
4 -33 3 -28 -2 6 -4 12 -21 13 -37 3 -39 30 -129 41 -136 5 -3 11 -33 13 -68
2 -42 7 -62 15 -62 7 0 13 -11 13 -25 0 -14 5 -25 10 -25 6 0 10 -6 10 -13 0
-21 78 -9 91 14 5 11 14 17 20 14 5 -4 9 5 9 19 0 14 5 28 11 32 8 5 10 45 5
135 -3 74 -2 131 4 134 5 3 39 9 77 14 83 11 123 29 123 55 0 19 0 19 14 1 13
-18 14 -18 20 3 10 29 46 29 111 -2 40 -18 62 -22 105 -19 30 3 86 1 125 -5
64 -9 76 -7 149 19 88 32 116 36 116 15 0 -14 7 -29 51 -118 11 -20 25 -63 32
-95 16 -71 15 -327 -1 -398 -6 -27 -18 -98 -26 -158 l-16 -107 -65 -91 c-36
-50 -65 -97 -65 -105 0 -8 -4 -14 -10 -14 -5 0 -16 -12 -24 -27 -11 -23 -12
-30 0 -40 15 -15 19 -10 28 32 4 17 19 42 34 57 15 14 36 43 47 64 11 22 28
45 38 53 10 7 16 19 13 27 -3 8 5 21 19 30 14 9 25 22 25 29 0 7 24 31 53 53
30 23 66 63 87 97 19 32 51 76 72 98 21 23 38 45 38 50 0 4 14 13 30 18 17 6
30 14 30 19 0 4 13 13 29 20 26 10 28 15 18 31 -10 16 -6 23 30 54 24 21 44
48 48 66 6 24 9 28 21 18 11 -9 14 -8 14 2 0 8 6 5 15 -7 14 -19 14 -18 15 3
0 16 4 21 15 17 8 -4 15 -13 15 -22 0 -8 -3 -12 -7 -9 -7 8 -33 -11 -33 -24 0
-5 9 -9 20 -9 14 0 21 9 26 35 3 20 12 35 20 35 8 0 14 10 14 21 0 17 -3 19
-13 10 -8 -6 -17 -8 -20 -4 -4 3 -14 0 -23 -7 -13 -12 -17 -11 -24 0 -10 17 6
31 26 23 20 -7 39 7 23 18 -10 6 -10 13 -1 33 8 17 8 26 1 26 -11 0 -39 25
-39 35 0 3 -11 16 -24 28 -13 12 -36 45 -51 72 -38 70 -141 167 -217 204 -57
27 -75 30 -188 35 -69 3 -141 1 -160 -4z"/>
<path d="M6152 5702 c-13 -4 -24 -11 -25 -17 -1 -12 -43 -35 -63 -35 -8 0 -17
-7 -20 -15 -4 -8 -15 -15 -25 -15 -10 0 -19 -5 -19 -10 0 -6 -14 -19 -31 -29
-17 -10 -30 -23 -31 -27 0 -5 -4 -14 -9 -21 -7 -7 -6 -14 1 -18 5 -3 10 -13
10 -20 0 -20 124 -145 143 -145 23 0 30 -18 10 -23 -10 -3 -3 -5 15 -6 22 -1
32 4 32 13 0 8 10 16 23 18 14 2 21 9 21 21 -1 9 4 17 12 17 8 0 14 6 14 13 0
23 72 89 91 84 12 -3 20 2 25 15 7 24 -5 116 -17 124 -15 9 -10 24 7 24 10 0
14 -6 10 -15 -3 -9 0 -15 10 -15 10 0 14 6 11 14 -4 9 1 17 11 19 9 3 0 5 -20
6 -21 0 -38 5 -38 9 0 12 -73 42 -101 41 -13 -1 -34 -4 -47 -7z"/>
<path d="M5479 5167 c-7 -15 -16 -27 -21 -27 -4 0 -8 -5 -8 -10 0 -6 -16 -34
-35 -63 -97 -145 -125 -185 -179 -260 -32 -45 -65 -85 -72 -89 -6 -5 -26 -33
-43 -63 -26 -46 -73 -115 -110 -161 -4 -5 -14 -21 -21 -35 -7 -13 -37 -55 -66
-94 -78 -105 -101 -157 -134 -305 -17 -74 -37 -160 -46 -190 -8 -30 -19 -77
-24 -105 -63 -351 -63 -353 -45 -329 7 10 16 17 19 14 9 -9 -30 -121 -39 -113
-4 5 -5 0 -2 -10 4 -10 0 -35 -9 -55 -19 -45 -35 -123 -38 -176 0 -22 -7 -41
-13 -44 -7 -2 -13 -18 -13 -35 0 -17 -6 -38 -14 -46 -7 -9 -21 -59 -30 -111
-20 -120 -63 -316 -77 -355 -6 -16 -14 -52 -20 -80 -5 -27 -16 -79 -24 -115
-23 -98 -45 -205 -60 -305 -32 -201 -65 -345 -77 -345 -5 0 -8 -8 -8 -18 0
-10 -7 -28 -16 -40 -16 -23 -16 -23 -30 -3 -11 15 -20 18 -37 12 -12 -4 -27
-6 -33 -4 -6 2 -14 -6 -17 -18 -4 -15 -11 -20 -22 -16 -9 4 -24 -2 -35 -13
-11 -11 -31 -20 -45 -20 -14 0 -25 -4 -25 -10 0 -5 -12 -11 -27 -11 -29 -1
-22 -4 38 -13 34 -6 35 -8 35 -49 -1 -41 -2 -42 -32 -40 -37 3 -144 51 -144
64 0 6 -9 7 -20 4 -11 -4 -20 -2 -20 4 0 14 -66 41 -93 38 -12 -1 -22 4 -22
11 0 17 -35 43 -46 36 -5 -3 -9 -1 -9 5 0 5 -15 13 -32 16 -52 12 -93 35 -78
45 11 7 10 16 -4 49 -28 60 -24 90 14 121 27 22 30 28 16 33 -9 4 -16 16 -16
27 0 25 1 25 46 -2 29 -17 40 -19 55 -10 16 10 23 8 39 -8 29 -29 40 -25 33
13 -7 40 -9 42 -26 29 -16 -14 -67 -8 -106 12 -32 17 -55 22 -32 7 12 -8 9
-11 -11 -16 -46 -12 -63 -3 -61 32 3 28 0 31 -30 35 -17 3 -40 8 -50 13 -14 6
-16 4 -10 -11 6 -16 4 -17 -9 -6 -13 10 -18 8 -32 -14 -20 -30 -15 -54 13 -54
26 0 33 -34 10 -48 -15 -9 -20 -8 -28 6 -8 14 -11 14 -12 2 -3 -35 3 -68 23
-117 26 -64 18 -75 -65 -93 -31 -6 -59 -15 -62 -20 -3 -4 -6 -24 -7 -44 -3
-32 -22 -55 -36 -41 -3 3 0 5 6 5 7 0 12 4 12 9 0 5 -9 7 -20 4 -11 -3 -17 -9
-14 -14 3 -5 -4 -9 -15 -9 -14 0 -19 5 -15 14 16 41 -107 101 -203 100 -34 0
-68 -5 -75 -11 -7 -6 -31 -14 -54 -17 -33 -6 -42 -13 -51 -37 -7 -17 -17 -28
-22 -25 -6 4 -21 -4 -33 -16 -16 -16 -35 -23 -63 -24 -33 0 -39 -4 -37 -18 3
-14 -1 -16 -20 -11 -28 9 -24 5 -31 36 -5 20 0 32 22 55 42 43 46 66 16 94
-13 12 -22 27 -19 31 3 5 -6 13 -19 18 -14 6 -26 14 -28 20 -5 13 -45 16 -76
6 -15 -5 -23 -3 -23 4 0 6 -9 11 -20 11 -11 0 -20 -7 -20 -15 0 -11 -11 -15
-35 -15 -22 0 -38 -6 -41 -15 -4 -8 -10 -12 -15 -9 -10 6 -90 -61 -82 -69 2
-3 -1 -25 -8 -48 -7 -24 -11 -55 -10 -68 4 -30 63 -92 90 -94 11 -1 18 -3 16
-5 -2 -2 5 -13 15 -24 14 -15 25 -18 49 -13 43 9 91 -19 119 -72 7 -12 15 -46
18 -77 4 -31 12 -56 18 -56 6 0 5 -4 -3 -9 -19 -12 -5 -30 17 -24 15 3 24 -7
41 -46 18 -42 27 -52 58 -60 20 -6 48 -8 62 -5 14 3 37 7 49 10 22 5 23 8 19
67 -5 65 -7 74 -25 120 -7 16 -12 33 -12 38 0 5 -5 9 -11 9 -6 0 -9 7 -6 15 4
8 2 17 -4 21 -6 3 -8 12 -5 19 2 7 -1 18 -7 24 -6 6 -7 14 -3 18 11 11 226 5
278 -7 24 -5 72 -10 108 -10 36 0 81 -5 100 -10 19 -6 74 -14 121 -19 48 -5
95 -14 105 -19 11 -6 62 -15 114 -21 123 -14 253 -65 243 -96 -11 -37 -30 -46
-93 -43 -35 1 -64 7 -68 14 -4 7 -38 14 -82 17 -41 2 -85 7 -97 12 -18 6 -23
3 -29 -19 -7 -28 20 -77 71 -126 14 -14 36 -36 48 -49 12 -13 42 -37 67 -54
49 -34 77 -56 129 -104 19 -18 50 -36 69 -39 52 -10 122 4 156 30 60 47 137
128 165 174 4 7 15 10 24 6 13 -4 17 -18 17 -53 -1 -67 -18 -274 -30 -356 -6
-38 -15 -146 -20 -240 -5 -93 -11 -181 -14 -195 -2 -14 -9 -50 -14 -80 -6 -30
-13 -63 -17 -72 -7 -17 6 -18 184 -18 l191 0 6 28 c8 31 41 72 60 72 7 0 19 6
26 13 48 46 79 65 98 60 25 -7 27 12 3 26 -16 9 -16 10 3 11 17 0 20 5 17 23
-3 14 2 31 11 40 9 8 16 25 16 36 0 11 5 23 10 26 18 11 10 41 -14 54 -20 11
-32 10 -75 -4 -74 -24 -81 -19 -77 57 5 82 4 78 21 78 8 0 19 16 25 40 6 21
15 42 21 46 18 11 1 63 -30 95 l-29 29 19 58 c23 66 51 126 62 130 13 6 7 29
-13 47 -22 20 -27 45 -8 45 7 0 21 -9 33 -20 11 -11 34 -31 50 -44 39 -31 109
-168 100 -196 -3 -11 -11 -20 -16 -20 -14 0 -11 -17 4 -23 18 -7 114 17 152
37 17 9 42 16 56 16 14 0 37 11 50 24 13 14 35 37 49 51 14 14 35 28 48 30 12
3 33 7 47 10 21 5 25 11 25 41 0 44 22 77 75 114 30 20 45 40 53 69 9 28 31
57 77 99 36 33 65 65 65 71 0 7 11 24 25 39 14 15 25 33 25 40 0 12 61 74 236
243 92 89 246 193 324 218 l62 21 70 -36 c39 -19 82 -36 97 -38 37 -5 133 -39
221 -77 106 -45 281 -107 375 -131 152 -39 187 -51 340 -118 11 -5 56 -19 100
-31 44 -13 116 -36 160 -52 44 -15 110 -37 147 -48 37 -10 92 -30 122 -44 30
-14 65 -25 78 -25 21 0 198 -39 318 -70 40 -11 160 -13 184 -4 31 12 16 35
-38 60 -30 14 -65 27 -77 29 -12 2 -32 11 -45 20 -13 8 -29 15 -37 15 -7 0
-30 9 -52 20 -21 11 -68 23 -104 26 -36 4 -76 13 -90 21 -14 7 -31 13 -38 13
-7 0 -29 9 -50 20 -21 10 -60 25 -88 32 -27 7 -52 16 -55 20 -3 4 -14 5 -25 4
-11 -2 -36 5 -55 14 -19 10 -69 28 -110 40 -41 12 -91 26 -110 32 -19 5 -46
11 -60 12 -14 1 -31 5 -39 10 -8 5 -16 4 -21 -3 -10 -17 -62 -2 -67 19 -3 11
-11 16 -22 13 -12 -3 -20 2 -23 15 -3 11 -17 21 -37 25 -22 5 -31 12 -31 27 0
21 -14 27 -25 10 -6 -10 -10 -9 -118 33 -59 22 -81 27 -90 18 -17 -17 -67 -14
-67 5 0 12 -7 14 -30 9 -26 -6 -31 -3 -40 19 -5 14 -17 26 -25 26 -9 0 -32 11
-52 25 -42 28 -52 26 -29 -7 28 -39 17 -44 -18 -8 -65 66 -78 76 -83 63 -6
-18 -23 -16 -23 2 0 8 -9 15 -20 15 -11 0 -20 -3 -20 -7 0 -5 -11 -8 -25 -8
-18 0 -25 5 -25 19 0 14 6 17 25 14 l25 -5 -25 23 c-29 27 -31 37 -10 54 19
15 45 -3 45 -31 0 -17 36 -46 46 -36 2 2 -5 16 -17 31 -18 23 -20 30 -8 37 8
5 11 9 7 10 -5 1 -11 2 -15 3 -5 1 -12 4 -18 7 -5 4 -25 10 -42 14 -18 3 -33
11 -33 16 0 6 -5 7 -11 3 -6 -3 -15 0 -20 7 -7 11 -9 10 -9 -5 0 -10 -8 -25
-17 -32 -16 -12 -16 -13 -1 -14 9 0 18 5 20 11 2 7 13 9 25 5 18 -6 20 -11 13
-40 -11 -48 -18 -56 -51 -56 -18 0 -28 4 -24 10 3 6 2 10 -3 10 -5 0 -12 9
-15 20 -3 11 -17 24 -31 30 -26 9 -26 10 -10 35 9 14 20 25 25 25 15 0 10 18
-8 24 -9 4 -20 1 -24 -6 -6 -9 -11 -9 -24 2 -9 7 -28 15 -43 16 -15 2 -32 10
-38 19 -7 9 -14 13 -17 8 -9 -14 -107 -3 -107 13 0 8 -7 14 -16 14 -11 0 -14
-6 -9 -22 6 -20 6 -21 -6 -7 -21 24 -49 31 -55 14 -4 -9 -19 -15 -39 -15 -62
0 -86 22 -42 40 20 8 19 9 -12 9 -26 1 -32 -2 -27 -15 3 -9 6 -22 6 -29 0 -15
21 -25 64 -31 16 -2 31 -6 34 -9 12 -12 -6 -13 -53 -3 -28 5 -61 12 -74 14
-18 4 -21 8 -12 17 17 17 13 27 -6 20 -16 -6 -16 -5 -4 10 12 16 11 21 -15 46
-30 29 -88 54 -99 43 -3 -4 -11 0 -16 8 -8 11 -12 12 -15 3 -4 -8 -13 -9 -30
-3 -19 8 -24 6 -24 -6 0 -8 -4 -13 -9 -10 -5 3 -11 -1 -14 -8 -3 -8 -1 -17 6
-20 9 -5 9 -7 -1 -12 -10 -5 -10 -9 -1 -20 16 -20 5 -28 -20 -14 -23 12 -28
30 -8 31 6 0 1 5 -12 10 -18 7 -22 14 -17 33 7 28 -12 46 -25 25 -6 -10 -11
-11 -16 -3 -13 18 -79 4 -95 -20 -4 -6 -39 -12 -78 -14 -72 -4 -115 7 -133 35
-13 20 -29 16 -18 -5 5 -9 7 -29 4 -44 -6 -31 5 -38 111 -74 86 -30 311 -94
328 -94 31 0 90 -23 95 -36 6 -17 -43 -74 -63 -74 -7 0 -23 -12 -36 -28 -13
-15 -36 -34 -52 -42 -16 -8 -50 -39 -74 -67 -25 -29 -52 -53 -59 -53 -7 0 -13
-6 -13 -12 -1 -8 -6 -6 -14 5 -30 39 -124 2 -201 -81 -27 -30 -69 -62 -92 -73
-24 -10 -43 -25 -43 -32 0 -18 -38 -62 -53 -62 -7 0 -14 -13 -17 -30 -3 -21
-11 -30 -24 -30 -10 0 -25 -10 -34 -23 -13 -20 -13 -22 2 -22 9 0 16 -7 16
-15 0 -8 5 -15 10 -15 6 0 10 5 10 10 0 6 12 10 28 11 15 0 21 3 15 6 -26 10
-13 30 16 25 15 -2 42 3 59 12 40 20 42 20 42 -5 0 -11 -15 -35 -33 -53 -18
-18 -36 -40 -40 -50 -4 -10 -23 -42 -43 -71 -25 -39 -43 -55 -65 -60 -17 -4
-52 -26 -79 -50 -52 -46 -77 -49 -130 -17 -48 30 -70 61 -60 88 5 13 7 48 4
77 -12 122 -11 130 68 537 16 85 40 188 54 228 13 40 24 75 24 77 0 3 -13 5
-29 5 -26 0 -33 7 -57 54 -18 35 -25 61 -21 77 8 28 92 122 123 138 16 7 24
27 33 73 7 35 27 124 46 198 172 690 200 817 250 1125 56 345 161 754 210 820
12 17 24 46 28 66 3 20 15 57 26 82 12 25 21 52 21 59 0 8 4 18 10 24 25 25
73 192 78 272 2 45 8 82 12 82 12 0 20 42 10 59 -7 13 -11 11 -21 -12z"/>
<path d="M8197 4773 c-15 -2 -32 -13 -38 -24 -10 -20 -8 -20 38 -13 26 3 56
11 66 16 9 5 17 7 18 6 0 -2 2 -14 3 -27 3 -21 0 -23 -32 -18 -27 5 -39 1 -60
-20 l-26 -26 26 -21 c37 -31 48 -113 12 -99 -18 7 -18 -8 0 -32 10 -14 11 -28
4 -51 -7 -27 -5 -37 10 -52 11 -11 27 -33 37 -50 19 -32 52 -47 79 -36 25 10
19 22 -15 29 -17 4 -28 9 -25 12 3 3 -4 23 -16 44 -25 44 -19 81 16 104 22 14
28 14 76 -4 l52 -20 -6 62 c-10 98 -26 167 -39 168 -7 1 -28 2 -47 3 -22 1
-35 6 -35 14 0 8 -9 20 -19 28 -20 14 -27 15 -79 7z"/>
<path d="M3962 4491 c-9 -5 -11 -19 -7 -42 3 -20 -1 -56 -11 -89 -23 -78 -22
-167 2 -206 29 -47 102 -124 118 -124 7 0 18 -10 23 -22 10 -21 11 -18 18 24
6 40 4 50 -14 69 -16 17 -18 26 -9 36 8 10 7 17 -8 27 -15 12 -17 18 -7 37 15
31 13 89 -3 89 -14 0 -29 33 -16 38 13 4 -1 80 -24 127 -19 40 -39 52 -62 36z"/>
<path d="M1350 4305 c0 -8 -7 -15 -15 -15 -8 0 -15 5 -15 10 0 21 -30 9 -36
-15 -3 -14 -11 -25 -16 -25 -6 0 -5 -6 2 -15 7 -8 21 -15 31 -15 11 0 19 -7
19 -15 0 -8 6 -15 13 -15 12 0 47 -64 47 -87 0 -6 12 -13 28 -17 15 -3 37 -8
50 -12 16 -5 22 -2 22 9 0 10 6 13 19 10 11 -3 21 2 24 11 4 9 13 16 22 16 20
0 19 20 -2 36 -10 7 -18 16 -19 21 -3 26 -20 43 -51 49 -22 4 -32 11 -29 20 3
8 -6 15 -26 19 -16 4 -39 16 -49 26 -15 15 -19 16 -19 4z"/>
<path d="M2465 4129 c-5 -21 -10 -27 -15 -19 -5 8 -17 10 -34 6 -15 -4 -26 -2
-26 4 0 5 8 10 18 11 13 0 12 3 -6 12 -18 8 -28 8 -43 -1 -10 -7 -32 -12 -49
-12 -17 0 -30 -5 -30 -12 0 -9 -3 -9 -11 -1 -9 9 -20 1 -45 -30 -19 -23 -41
-49 -49 -58 -8 -9 -15 -20 -15 -26 0 -5 -11 -16 -24 -23 -14 -7 -32 -30 -40
-51 -8 -20 -25 -44 -37 -53 -34 -23 -35 -86 -4 -136 14 -22 32 -40 39 -40 8 0
16 -5 18 -10 2 -6 26 -11 53 -13 28 -1 53 -6 57 -11 4 -6 19 -6 39 0 27 8 35
16 40 43 4 18 16 46 28 62 12 15 21 32 21 36 0 5 23 32 50 61 28 29 50 57 50
62 0 4 11 17 25 28 13 11 30 31 36 46 7 14 15 26 19 26 13 0 31 72 25 100 -6
27 -11 30 -45 30 -35 0 -39 -3 -45 -31z"/>
<path d="M3161 4113 c-19 -3 -30 -8 -24 -11 7 -5 8 -27 2 -67 -8 -57 4 -115
22 -115 4 0 21 -13 38 -29 17 -16 31 -27 31 -24 0 3 7 0 15 -7 8 -7 13 -16 10
-20 -3 -4 2 -13 10 -20 13 -10 19 -10 34 4 17 15 17 19 1 64 -9 26 -21 56 -27
67 -10 19 -30 86 -39 129 -3 18 -23 38 -34 34 -3 -1 -20 -3 -39 -5z"/>
<path d="M3566 4101 c-11 -12 -23 -42 -27 -69 -9 -57 -3 -183 9 -191 4 -3 9
-26 11 -51 1 -24 9 -52 17 -61 18 -20 18 -39 0 -39 -7 0 -16 10 -20 22 -5 21
-7 21 -21 7 -13 -13 -14 -20 -4 -42 14 -31 24 -34 34 -9 6 16 8 16 21 -3 8
-11 29 -35 47 -54 20 -22 27 -36 19 -39 -6 -2 -12 -12 -12 -23 0 -23 -7 -24
-56 -3 -46 19 -129 12 -177 -16 -50 -29 -140 -44 -182 -30 -41 14 -55 7 -55
-26 0 -13 -4 -24 -9 -24 -6 0 -11 -15 -13 -32 -3 -28 -7 -33 -29 -33 -14 0
-34 -7 -43 -15 -17 -13 -17 -15 3 -31 12 -10 21 -24 21 -33 0 -9 4 -16 9 -16
5 0 13 -10 16 -22 20 -68 37 -89 97 -118 57 -28 62 -29 75 -12 7 9 12 27 9 40
-2 17 1 22 20 22 32 0 76 -18 70 -29 -8 -13 29 -42 66 -51 119 -29 200 -60
227 -86 24 -22 39 -28 63 -26 26 3 30 1 21 -8 -6 -7 -29 -12 -50 -12 l-38 1
47 -50 c47 -48 64 -87 33 -75 -22 8 -19 -20 8 -73 18 -37 22 -64 23 -139 0
-50 4 -95 7 -99 4 -3 7 -18 7 -32 0 -15 7 -36 15 -48 13 -18 12 -22 -5 -38
-11 -10 -26 -15 -34 -12 -10 4 -6 -10 13 -41 68 -117 156 -397 129 -413 -9 -6
-7 -10 7 -15 11 -5 26 -14 33 -21 7 -7 25 -14 40 -15 42 -2 44 -3 92 -27 47
-24 126 -84 147 -111 21 -27 24 -4 9 71 -22 106 -37 220 -43 327 l-5 92 -26
-25 c-26 -26 -53 -35 -33 -11 6 8 10 20 9 27 -2 7 4 13 12 14 11 0 15 15 17
63 1 34 -1 62 -4 62 -4 0 -14 -7 -24 -16 -16 -14 -18 -14 -29 5 -9 17 -8 25 5
37 17 18 20 34 4 34 -5 0 -8 4 -4 10 3 5 12 7 20 4 12 -5 14 9 9 88 -2 51 -9
108 -15 126 -8 23 -7 64 2 143 6 60 9 112 6 115 -3 3 -17 -17 -31 -44 -33 -66
-68 -92 -120 -92 -98 0 -186 123 -115 160 10 6 19 19 19 30 0 10 5 22 10 25
10 6 14 45 4 45 -3 0 -14 -5 -25 -10 -33 -18 -23 17 16 57 19 20 35 44 35 54
0 10 14 71 30 136 17 64 30 127 30 139 0 12 6 24 12 26 7 3 12 21 12 44 -1 36
-9 47 -95 134 -52 52 -102 104 -111 115 -9 11 -31 31 -48 45 -18 14 -41 42
-51 63 -11 21 -26 40 -33 43 -8 3 -16 18 -20 35 -3 16 -11 29 -19 29 -7 0 -13
10 -14 21 -1 12 -13 38 -26 58 -14 20 -27 42 -29 49 -2 10 -9 8 -22 -7z"/>
<path d="M8810 4011 c0 -4 9 -16 20 -26 11 -10 20 -23 20 -30 0 -6 11 -17 24
-23 35 -16 64 -61 46 -72 -18 -11 -3 -30 23 -30 21 0 107 -29 195 -66 36 -14
45 -15 52 -4 7 11 11 10 25 -4 10 -9 19 -15 21 -14 8 8 -9 48 -20 47 -36 -4
-39 2 -13 27 32 30 29 36 -29 52 -23 7 -58 23 -78 37 -20 14 -41 25 -46 25 -5
0 -22 16 -38 36 -22 26 -39 37 -63 39 -19 2 -58 6 -86 9 -29 3 -53 2 -53 -3z"/>
<path d="M5500 3594 c0 -8 -3 -14 -7 -14 -24 0 -18 -230 7 -318 6 -20 17 -79
24 -130 14 -100 22 -112 89 -159 28 -19 42 -24 44 -15 3 6 14 12 25 12 15 0
18 5 13 20 -4 14 -2 20 8 20 10 0 17 14 20 43 3 23 10 78 16 122 12 87 5 232
-12 253 -8 10 -7 16 1 21 8 5 7 17 -3 46 -8 22 -14 48 -15 58 0 27 -20 20 -21
-8 -2 -44 -5 -50 -17 -47 -7 1 -12 -3 -12 -9 0 -5 -4 -7 -10 -4 -5 3 -10 15
-10 26 0 10 -4 19 -10 19 -5 0 -10 9 -10 20 0 12 -10 24 -24 30 -13 5 -27 13
-30 18 -9 15 -66 12 -66 -4z"/>
<path d="M1544 3582 c4 -7 14 -12 23 -12 9 0 13 -6 10 -14 -8 -19 16 -38 50
-41 16 -1 42 -9 58 -17 17 -9 71 -29 120 -46 50 -17 124 -46 165 -66 41 -19
98 -40 125 -46 144 -35 568 -218 815 -354 25 -13 95 -48 155 -77 102 -48 115
-52 186 -52 68 -1 76 -3 71 -19 -3 -12 1 -18 13 -18 11 0 15 -5 11 -15 -5 -15
50 -65 72 -65 6 0 12 -3 14 -7 6 -15 66 -43 90 -43 16 0 19 3 10 9 -19 12 -10
46 11 45 13 -1 14 2 6 17 -5 11 -15 19 -21 19 -6 0 -20 8 -31 17 -18 17 -19
17 -33 -2 -11 -15 -17 -16 -26 -7 -9 9 -10 15 -2 20 14 9 -3 73 -19 71 -39 -5
-56 3 -68 30 -8 18 -18 27 -24 22 -20 -15 -55 -10 -55 7 0 12 -15 23 -42 32
-26 9 -44 23 -48 35 -3 12 -15 21 -30 23 -14 2 -28 10 -33 18 -4 7 -13 11 -21
8 -7 -3 -19 2 -26 11 -7 8 -23 15 -35 15 -14 0 -25 7 -28 19 -2 10 -26 29 -53
42 -27 13 -55 30 -62 37 -7 6 -20 12 -28 12 -8 0 -14 5 -14 11 0 6 -8 8 -18 5
-11 -4 -28 3 -42 16 -14 13 -29 22 -34 20 -4 -2 -15 6 -23 18 -8 11 -20 20
-28 20 -7 0 -21 7 -30 16 -9 9 -27 17 -41 17 -13 0 -24 4 -24 9 0 6 -7 7 -15
4 -9 -3 -18 1 -21 9 -4 9 -19 15 -38 15 -49 0 -76 11 -76 29 0 28 -11 32 -29
9 -15 -17 -21 -19 -39 -9 -12 6 -22 16 -22 20 0 11 -70 20 -76 9 -11 -17 -34
-7 -34 15 0 19 -6 22 -42 25 -24 2 -47 7 -52 12 -6 6 -22 10 -37 10 -16 0 -29
7 -33 17 -6 13 -9 14 -15 4 -7 -10 -15 -10 -43 2 -19 8 -47 12 -63 10 -15 -3
-30 -2 -34 4 -7 11 -90 38 -111 36 -8 -1 -17 3 -21 8 -4 7 -12 4 -22 -5 -20
-20 -37 -20 -37 -1 0 8 -9 15 -20 15 -11 0 -20 -4 -20 -10 0 -5 -4 -10 -10
-10 -5 0 -10 9 -10 19 0 19 -18 31 -46 31 -8 0 -14 -8 -14 -17 0 -13 -2 -15
-8 -5 -5 7 -26 16 -47 19 -27 4 -36 3 -31 -5z"/>
<path d="M9979 3120 c-9 -24 -17 -30 -40 -30 -19 0 -40 -10 -55 -25 -27 -27
-39 -31 -49 -14 -4 6 -13 8 -21 5 -8 -3 -17 1 -21 10 -3 9 -17 20 -32 25 -20
8 -28 7 -39 -8 -11 -15 -10 -20 5 -30 9 -7 25 -13 36 -13 26 0 17 -21 -21 -45
-36 -23 -42 -40 -9 -29 26 9 57 12 160 15 86 3 81 -1 91 84 3 22 8 50 11 63
11 33 -4 27 -16 -8z"/>
<path d="M2988 2792 c7 -5 10 -16 7 -24 -4 -9 0 -18 9 -21 9 -4 16 -13 16 -20
0 -8 7 -20 15 -27 9 -7 13 -15 10 -18 -3 -3 0 -11 5 -18 6 -6 10 -16 9 -20 -2
-5 8 -30 21 -56 19 -39 26 -45 41 -38 14 8 16 6 11 -13 -5 -18 -3 -20 9 -10
21 17 35 4 43 -39 4 -21 18 -47 33 -60 78 -69 161 -161 201 -224 27 -42 38
-47 130 -60 31 -4 27 13 -7 31 -37 19 -46 32 -32 49 8 9 2 23 -25 54 -20 23
-40 40 -45 36 -17 -10 -31 7 -18 22 9 11 8 19 -7 37 -30 36 -47 47 -70 47 -12
0 -27 7 -34 15 -10 12 -9 15 5 15 25 0 12 24 -14 28 -13 2 -26 12 -28 22 -3
11 -16 20 -31 22 -17 2 -28 10 -30 21 -2 11 -11 27 -20 38 -10 10 -25 28 -34
39 -10 11 -18 27 -18 35 0 8 -8 15 -17 15 -23 0 -63 42 -63 65 0 14 -3 15 -15
5 -10 -9 -15 -9 -15 -1 0 22 -2 26 -17 44 -9 9 -21 17 -27 17 -6 0 -6 -4 2 -8z"/>
<path d="M10576 2764 c9 -39 12 -41 23 -13 8 21 9 20 8 -13 -1 -27 -5 -37 -16
-36 -38 3 -81 -15 -81 -34 0 -26 -26 -53 -34 -35 -4 6 -4 -4 -1 -23 6 -36 25
-56 36 -38 4 7 8 5 11 -3 4 -11 9 -12 27 -1 11 6 30 12 41 12 11 0 20 5 20 10
0 6 -6 10 -14 10 -11 0 -12 6 -1 38 12 33 17 37 44 34 19 -1 31 3 31 10 0 9 3
9 12 0 17 -17 33 -15 18 3 -7 8 -10 28 -8 45 5 30 0 34 -37 31 -17 -2 -17 0
-5 8 13 9 13 11 -1 11 -9 0 -31 3 -48 6 -31 7 -32 6 -25 -22z"/>
<path d="M1930 2521 c-44 -14 -155 -95 -158 -116 -1 -11 -16 -29 -32 -40 -38
-25 -45 -54 -17 -64 15 -6 25 -4 32 5 10 13 66 30 133 39 48 8 101 32 108 50
3 8 12 15 20 15 8 0 14 3 14 8 0 4 13 16 29 27 17 10 34 29 40 41 8 19 7 21
-10 17 -13 -4 -19 -1 -17 8 2 8 -3 12 -12 10 -25 -6 -64 -6 -85 1 -11 3 -31 3
-45 -1z"/>
<path d="M1667 2236 c11 -62 22 -69 154 -98 68 -15 158 -30 199 -34 41 -3 84
-13 95 -20 11 -8 29 -14 42 -14 16 0 26 -11 39 -41 15 -33 20 -37 25 -22 6 14
8 12 8 -10 1 -25 -1 -27 -19 -17 -18 10 -20 8 -20 -18 0 -25 -3 -28 -34 -27
-27 1 -32 -2 -28 -17 5 -21 -21 -25 -39 -5 -10 10 -20 5 -50 -25 -21 -21 -43
-38 -49 -38 -5 0 -15 -9 -22 -20 -7 -11 -19 -20 -26 -20 -7 0 -11 -4 -8 -8 6
-10 -30 -43 -38 -35 -3 4 -6 1 -6 -5 0 -7 9 -12 20 -12 11 0 20 5 20 10 0 6
19 10 43 10 34 0 49 6 68 26 13 14 34 30 47 35 12 5 22 16 22 24 0 9 6 15 13
14 30 -4 47 2 47 16 0 20 27 30 44 16 7 -6 34 -14 59 -17 50 -7 49 -7 61 49 4
15 13 27 21 27 8 0 15 6 15 14 0 10 23 13 103 14 56 1 116 5 132 10 40 11 109
6 167 -13 27 -9 59 -13 74 -9 17 4 29 2 35 -7 6 -11 46 -14 181 -14 120 0 180
-4 195 -12 30 -18 80 -16 87 2 3 9 0 15 -9 15 -8 0 -15 4 -15 9 0 9 -56 25
-79 22 -7 -1 -10 2 -6 8 3 6 -1 11 -9 11 -9 0 -16 4 -16 9 0 5 -22 12 -50 16
-27 4 -50 10 -50 14 0 4 -30 9 -67 10 -133 5 -169 8 -192 20 -17 9 -26 10 -36
1 -8 -7 -20 -8 -27 -3 -17 11 -128 31 -128 23 0 -3 -16 -6 -36 -7 -28 -1 -38
3 -41 18 -6 21 -36 33 -75 31 -15 -1 -29 2 -33 7 -3 6 -16 4 -31 -4 -15 -7
-40 -11 -58 -8 -17 2 -38 4 -46 3 -57 -4 -92 -1 -102 8 -7 5 -60 13 -116 16
-57 3 -109 9 -115 15 -7 5 -46 8 -87 7 -59 -2 -85 2 -125 20 -27 12 -63 25
-78 28 -15 4 -25 10 -23 15 3 5 -3 11 -14 14 -17 4 -18 1 -13 -27z"/>
<path d="M10728 2193 c-10 -2 -18 -8 -18 -13 0 -33 -113 -93 -167 -88 -25 2
-37 -1 -36 -9 1 -6 -11 -17 -27 -25 -25 -11 -27 -14 -12 -20 16 -6 16 -7 -1
-7 -10 -1 -16 -5 -12 -10 3 -5 -1 -16 -8 -23 -12 -12 -9 -17 19 -38 18 -14 34
-31 34 -38 0 -7 4 -11 8 -8 5 3 22 -8 37 -24 16 -17 32 -30 36 -30 13 0 19 63
8 77 -7 7 -9 17 -5 20 4 4 11 1 16 -7 7 -11 11 -11 24 -1 9 8 16 9 16 4 0 -5
29 -22 65 -38 36 -16 65 -33 65 -37 0 -4 7 -8 15 -8 13 0 15 24 15 155 0 142
-1 155 -19 165 -20 10 -25 11 -53 3z"/>
<path d="M10 1598 c0 -343 1 -360 18 -346 19 17 53 32 65 30 4 -1 7 3 7 9 0 5
3 8 8 5 18 -11 99 54 128 103 14 26 16 35 6 38 -9 3 -10 9 -3 17 10 12 0 81
-18 121 -16 35 -22 59 -27 99 -3 22 -12 49 -20 60 -8 11 -14 29 -14 40 0 34
-32 136 -41 130 -5 -3 -9 -1 -9 5 0 15 -46 43 -75 47 l-25 2 0 -360z"/>
<path d="M6416 1461 c-4 -6 -29 -13 -56 -17 -27 -4 -55 -13 -61 -20 -6 -8 -19
-14 -29 -14 -21 0 -44 -25 -36 -39 9 -14 -4 -41 -19 -41 -8 0 -17 -5 -21 -11
-4 -7 8 -10 37 -9 89 4 119 0 114 -12 -7 -20 22 -51 40 -44 9 3 13 2 10 -3 -3
-5 3 -12 12 -15 37 -10 79 0 105 27 25 25 27 32 19 70 -8 43 -54 127 -70 127
-5 0 -16 3 -24 6 -8 3 -18 1 -21 -5z"/>
<path d="M1452 1352 c-12 -8 -22 -22 -22 -31 0 -9 -5 -22 -12 -29 -8 -8 -8
-15 2 -27 8 -10 9 -15 1 -15 -6 0 -11 -7 -11 -15 0 -9 -7 -18 -15 -21 -8 -4
-15 -10 -15 -15 0 -12 150 -1 167 12 7 6 27 9 43 7 30 -4 31 -4 24 26 -7 31
-25 56 -42 56 -14 0 -62 26 -58 31 2 2 -6 11 -18 20 -19 15 -24 15 -44 1z"/>
<path d="M6110 1270 c0 -21 -26 -46 -32 -31 -1 6 -14 2 -28 -9 l-24 -18 32
-30 c18 -17 32 -36 32 -44 1 -19 47 -51 55 -38 4 6 2 17 -5 25 -8 10 -4 21 18
47 31 35 46 84 29 95 -6 4 -3 10 9 14 12 5 0 8 -33 7 -43 -1 -53 -4 -53 -18z"/>
<path d="M7680 1140 c-8 -6 -39 -20 -67 -32 -29 -12 -53 -25 -53 -29 0 -4 -24
-10 -53 -13 -29 -4 -67 -14 -83 -23 -76 -41 -90 -47 -110 -45 -12 2 -28 -3
-35 -11 -8 -7 -41 -17 -74 -21 -32 -4 -62 -11 -66 -17 -3 -5 -28 -12 -55 -14
-103 -9 -140 -17 -180 -39 -37 -21 -44 -22 -84 -10 -28 8 -48 10 -55 4 -6 -5
-36 -15 -66 -21 -31 -6 -65 -21 -80 -35 -31 -29 -42 -30 -60 -4 -8 11 -31 26
-51 35 l-38 15 0 -40 c0 -39 -1 -40 -20 -27 -16 11 -30 12 -63 5 -23 -5 -61
-11 -83 -13 -23 -3 -53 -9 -66 -14 -14 -5 -38 -8 -54 -6 -16 2 -34 -1 -39 -5
-6 -5 -24 -3 -40 5 -50 22 -94 34 -112 30 -69 -13 -71 -15 -67 -51 5 -38 -1
-41 -33 -19 -20 14 -24 14 -40 -3 -13 -14 -39 -21 -88 -26 -95 -9 -101 -11
-117 -23 -7 -6 -32 -11 -55 -10 -24 0 -46 -2 -50 -6 -3 -4 -18 -7 -32 -7 -14
0 -41 -9 -59 -20 -36 -22 -108 -27 -115 -7 -4 9 -6 9 -6 -1 -1 -7 -5 -11 -11
-7 -5 3 -17 1 -27 -4 -66 -35 -108 -51 -119 -47 -15 6 -64 -34 -64 -52 0 -6
-4 -12 -9 -14 -5 -1 -11 -11 -13 -21 -3 -17 9 -19 155 -22 87 -2 185 -9 218
-16 48 -9 65 -9 87 2 15 7 34 14 42 15 172 24 367 62 394 76 58 31 138 49 245
54 63 3 124 9 135 14 20 7 84 11 229 13 37 1 67 5 67 9 0 5 5 8 11 8 6 0 37
13 68 28 31 16 90 39 131 51 41 13 88 27 104 32 15 5 33 6 38 3 6 -4 13 -2 17
3 3 5 40 17 81 27 41 10 82 24 90 31 8 6 26 16 40 22 14 6 50 29 80 52 30 22
60 41 66 41 41 0 246 107 308 161 40 35 29 65 -14 39z"/>
<path d="M400 1097 c0 -8 -11 -17 -25 -19 -14 -3 -25 -1 -25 3 0 18 -17 8 -30
-16 -11 -20 -20 -24 -49 -22 -29 2 -36 -2 -39 -18 -3 -31 11 -45 48 -48 26 -1
44 -13 74 -44 37 -39 45 -43 88 -43 25 0 53 -6 60 -13 36 -35 77 -57 84 -45 4
6 3 13 -3 15 -6 2 -9 12 -6 22 7 27 -24 71 -45 64 -13 -5 -15 -3 -5 7 9 10 8
18 -5 38 -9 13 -15 39 -14 58 3 40 -22 57 -68 49 -19 -3 -29 -2 -26 4 4 5 2
12 -4 16 -5 3 -10 0 -10 -8z"/>
<path d="M996 965 c-3 -9 1 -18 9 -21 18 -7 20 -22 3 -21 -43 1 -48 -3 -48
-43 0 -33 -3 -40 -19 -40 -11 0 -23 -5 -26 -10 -3 -6 -17 -7 -30 -4 -19 5 -27
0 -39 -24 -9 -17 -13 -37 -10 -45 3 -8 -2 -32 -10 -52 -15 -36 -15 -40 6 -84
13 -25 31 -53 41 -61 19 -17 31 -60 16 -60 -17 0 -9 -57 14 -91 37 -55 67
-109 67 -120 0 -6 13 -29 28 -52 15 -23 33 -51 39 -62 6 -11 16 -19 22 -17 11
2 91 -44 101 -58 3 -4 19 -15 37 -24 38 -19 75 -8 108 33 27 34 28 53 5 111
-25 64 -25 82 0 105 11 10 20 22 20 28 0 5 8 21 19 35 26 39 36 115 16 132 -8
7 -15 19 -15 26 0 8 -7 14 -15 14 -8 0 -15 7 -15 15 0 8 -15 25 -34 37 -64 42
-114 140 -82 163 9 7 16 19 16 27 0 8 4 18 9 24 6 5 2 18 -10 33 -15 19 -29
24 -54 23 -26 -2 -35 2 -40 18 -3 11 -12 20 -20 20 -7 0 -27 14 -43 30 -33 33
-57 38 -66 15z"/>
<path d="M3200 845 c-7 -8 -18 -15 -25 -15 -16 0 -30 -33 -16 -38 6 -2 11 -10
11 -18 0 -8 10 -14 26 -14 20 0 25 -4 20 -16 -5 -12 -2 -15 10 -10 8 3 33 6
54 6 57 0 97 51 53 67 -10 4 -20 9 -23 13 -13 15 -61 40 -78 40 -11 0 -25 -7
-32 -15z"/>
<path d="M9225 671 c-22 -37 -160 -76 -315 -91 -47 -5 -88 -9 -92 -9 -21 -2 9
-116 34 -132 5 -3 9 -8 7 -10 -7 -12 15 -49 31 -54 24 -8 49 5 90 46 27 27 36
31 70 26 21 -3 74 -25 117 -49 67 -37 82 -42 105 -34 31 11 34 20 48 158 6 63
6 106 0 123 -5 14 -11 25 -12 25 -2 1 -19 3 -39 6 -22 3 -40 1 -44 -5z"/>
<path d="M170 610 c-25 -4 -41 -8 -36 -8 5 -1 4 -8 -2 -14 -5 -7 -13 -28 -17
-45 -6 -29 -4 -34 21 -43 43 -17 117 -20 136 -6 36 26 34 106 -3 106 -10 0
-19 5 -19 10 0 11 -11 11 -80 0z"/>
<path d="M8035 565 c-11 -13 -28 -24 -37 -25 -34 0 -48 -12 -48 -40 0 -15 -6
-32 -13 -38 -9 -7 -13 -32 -12 -69 1 -32 -3 -71 -10 -88 -6 -16 -10 -36 -9
-42 1 -7 2 -22 3 -34 0 -11 5 -18 10 -14 5 3 17 -3 27 -12 10 -10 20 -18 23
-19 3 0 13 -3 21 -6 8 -4 31 -9 50 -12 47 -8 140 -56 140 -72 0 -7 9 -15 20
-19 10 -3 25 -22 32 -41 12 -33 14 -34 65 -34 29 0 53 5 53 10 0 6 -7 10 -15
10 -13 0 -15 13 -14 66 2 50 5 64 15 60 10 -4 14 3 14 20 0 14 -4 23 -9 20
-14 -9 -10 43 5 55 8 6 11 16 8 21 -4 6 -6 48 -5 94 1 46 -2 84 -7 84 -4 0
-25 16 -46 35 -21 19 -46 35 -55 35 -20 0 -95 34 -133 61 -35 25 -49 24 -73
-6z"/>
<path d="M2573 563 c2 -10 6 -25 8 -33 2 -8 8 -18 13 -22 5 -3 9 -20 8 -36 0
-22 3 -29 13 -26 10 4 12 0 8 -15 -5 -18 -1 -21 27 -21 17 0 43 -9 57 -20 14
-11 30 -17 36 -13 6 4 8 -8 3 -33 l-6 -39 19 48 19 47 -73 76 c-50 52 -79 75
-90 71 -10 -5 -15 0 -15 13 0 12 -7 20 -16 20 -11 0 -15 -6 -11 -17z"/>
<path d="M9780 543 c-14 -7 -35 -13 -47 -13 -13 0 -23 -4 -23 -9 0 -5 -16 -15
-34 -22 -19 -7 -33 -16 -30 -20 2 -4 1 -9 -3 -11 -17 -7 -63 -78 -63 -96 0
-11 -5 -22 -12 -24 -18 -6 -1 -38 19 -38 10 0 30 14 45 30 36 41 69 39 123 -8
51 -45 144 -79 235 -85 84 -6 99 2 98 53 0 22 5 47 12 55 7 8 14 38 16 67 3
51 2 54 -31 77 -19 13 -54 30 -77 38 -55 20 -195 24 -228 6z"/>
<path d="M1785 510 c-3 -5 -28 -12 -55 -16 -46 -6 -129 -58 -116 -72 3 -3 -3
-11 -14 -19 -11 -8 -20 -23 -20 -33 0 -10 -9 -22 -20 -25 -11 -3 -20 -11 -20
-16 0 -5 -8 -19 -18 -30 -38 -40 -47 -67 -31 -95 25 -48 137 -144 165 -144 49
1 97 53 119 128 8 27 24 61 35 75 11 14 20 30 20 36 0 6 4 11 9 11 4 0 11 32
15 70 7 75 -7 121 -39 134 -22 8 -23 8 -30 -4z"/>
<path d="M570 319 c-35 -14 -40 -26 -40 -101 0 -46 5 -71 15 -82 8 -8 15 -19
15 -25 0 -6 19 -11 43 -11 24 0 49 -6 56 -13 11 -10 12 -7 6 13 -6 21 -5 23 6
12 8 -7 14 -23 15 -35 0 -12 1 -34 2 -49 l2 -28 135 0 c127 0 135 1 135 20 0
10 -6 23 -13 27 -6 4 -18 20 -26 35 -8 17 -25 30 -44 34 -19 4 -25 9 -17 14 9
5 9 9 1 14 -6 4 -16 4 -21 1 -6 -4 -17 -1 -25 5 -11 9 -15 9 -15 1 0 -12 -34
-10 -47 3 -4 4 -8 30 -8 58 0 46 -3 53 -35 79 -39 32 -100 44 -140 28z"/>
<path d="M6790 319 c-34 -10 -68 -53 -50 -64 5 -3 11 -24 15 -47 5 -30 20 -55
52 -90 34 -35 44 -53 40 -69 -13 -48 -9 -49 214 -49 228 0 221 -2 198 57 -7
15 -11 38 -10 51 1 27 -24 40 -50 24 -10 -7 -25 -9 -33 -6 -9 3 -24 -5 -37
-20 -13 -14 -26 -26 -31 -26 -23 0 -78 67 -82 102 -1 3 -13 16 -28 28 -16 12
-28 31 -29 43 0 12 -3 16 -6 9 -3 -8 -20 1 -53 28 -50 42 -55 43 -110 29z"/>
<path d="M6283 300 c-15 -6 -21 -15 -17 -25 5 -11 0 -15 -18 -15 -48 0 -98
-81 -122 -202 -3 -14 -9 -33 -12 -42 -5 -14 12 -16 157 -16 149 1 162 2 137
15 -41 23 -79 115 -47 115 8 0 7 6 -2 17 -12 14 -12 16 2 11 12 -5 14 0 11 26
-2 17 -6 38 -9 46 -4 8 -7 17 -7 20 -1 3 -5 11 -9 18 -5 6 -5 12 -1 12 3 0 1
7 -6 15 -14 17 -25 18 -57 5z"/>
<path d="M3743 280 c-18 -11 -33 -26 -33 -34 0 -8 -14 -26 -31 -40 -17 -14
-25 -26 -18 -26 7 0 9 -3 5 -7 -10 -10 -40 -13 -46 -4 -3 4 -35 11 -72 15
l-68 7 0 -31 c0 -16 5 -30 10 -30 6 0 10 -5 10 -12 0 -6 18 -35 40 -65 l41
-53 89 0 c74 0 90 3 90 15 0 9 9 25 20 37 27 29 61 105 71 157 7 36 6 47 -11
68 -11 14 -20 20 -20 12 0 -10 -3 -10 -12 -1 -16 16 -28 15 -65 -8z"/>
<path d="M7625 218 c-14 -41 -16 -62 -18 -140 l-2 -78 88 0 c86 0 87 0 87 25
0 18 -5 25 -19 25 -15 0 -22 12 -32 53 -8 28 -13 58 -13 65 1 6 -2 12 -7 12
-5 0 -9 5 -9 10 0 15 -38 50 -54 50 -7 0 -17 -10 -21 -22z"/>
<path d="M9498 72 c-21 -2 -38 -7 -38 -11 0 -4 13 -19 28 -34 27 -26 33 -27
135 -27 59 0 107 4 107 8 0 35 -135 72 -232 64z"/>
</g>
</svg>
