<?xml version="1.0" standalone="no"?>
<!DOCTYPE svg PUBLIC "-//W3C//DTD SVG 20010904//EN"
 "http://www.w3.org/TR/2001/REC-SVG-20010904/DTD/svg10.dtd">
<svg version="1.0" xmlns="http://www.w3.org/2000/svg"
 width="400.000000pt" height="400.000000pt" viewBox="0 0 400.000000 400.000000"
 preserveAspectRatio="xMidYMid meet">

<g transform="translate(0.000000,400.000000) scale(0.100000,-0.100000)"
fill="#000000" stroke="none">
<path d="M2940 3993 c-131 -20 -262 -49 -292 -64 -21 -10 -43 -19 -49 -19 -21
0 -173 -91 -229 -139 -71 -59 -124 -112 -147 -148 -10 -15 -33 -48 -51 -72
-30 -40 -64 -105 -107 -206 -21 -49 -43 -158 -57 -287 -12 -99 -11 -102 30
-288 23 -102 55 -179 108 -262 58 -91 80 -123 95 -139 9 -9 18 -21 20 -26 2
-5 33 -33 69 -62 36 -29 69 -57 74 -61 4 -5 -18 -48 -49 -97 -166 -253 -199
-309 -191 -329 7 -17 62 -11 146 16 30 10 81 23 113 29 31 6 66 15 77 21 10 6
50 17 87 24 72 15 147 35 253 67 36 11 73 19 82 19 10 0 44 9 75 19 32 10 87
26 123 35 277 69 421 141 566 282 115 112 206 257 259 414 35 103 52 299 36
424 -45 352 -274 639 -626 785 -110 46 -323 79 -415 64z m330 -151 c133 -47
174 -68 257 -134 173 -136 263 -260 330 -453 20 -58 25 -97 30 -226 6 -151 5
-158 -22 -245 -29 -91 -90 -217 -128 -265 -12 -15 -38 -49 -57 -75 -68 -92
-231 -205 -381 -264 -57 -23 -357 -102 -472 -126 -37 -7 -77 -19 -88 -24 -11
-6 -47 -16 -81 -21 -33 -5 -73 -16 -87 -24 -15 -7 -55 -17 -89 -21 -35 -3 -65
-11 -68 -15 -3 -5 -9 -7 -14 -4 -16 10 8 63 74 163 72 108 78 140 32 164 -11
6 -28 17 -36 24 -8 7 -34 30 -58 50 -24 21 -69 70 -100 109 -84 107 -115 165
-165 310 -29 85 -30 98 -30 241 1 170 19 258 75 374 57 115 176 252 303 345
95 69 134 92 175 100 19 4 48 14 63 22 41 21 171 32 322 28 114 -2 140 -6 215
-33z"/>
<path d="M2918 3521 c-108 -37 -167 -145 -142 -259 11 -48 22 -70 56 -113 7
-9 37 -28 65 -43 202 -102 412 124 297 320 -33 57 -51 71 -120 94 -69 23 -93
23 -156 1z"/>
<path d="M2667 2951 c-64 -38 -95 -83 -107 -157 -13 -76 -13 -176 0 -208 l10
-26 429 0 c428 0 430 0 442 21 7 14 10 63 7 138 -4 113 -5 117 -37 163 -25 34
-49 53 -91 72 -57 26 -58 26 -331 25 l-274 0 -48 -28z"/>
<path d="M680 2980 c-47 -3 -98 -13 -115 -22 -16 -8 -43 -18 -60 -22 -42 -10
-174 -93 -210 -132 -49 -53 -54 -60 -81 -121 -25 -54 -27 -71 -32 -231 -4
-148 -7 -174 -21 -179 -120 -43 -184 -185 -130 -288 25 -47 78 -105 95 -105
27 0 51 -49 58 -117 8 -79 48 -223 70 -255 9 -12 16 -29 16 -38 0 -14 38 -75
70 -113 46 -55 127 -137 135 -137 9 0 18 -7 79 -64 l39 -37 -5 -94 c-3 -52
-10 -101 -17 -108 -7 -9 -41 -16 -91 -20 -45 -3 -86 -10 -93 -15 -7 -6 -35
-16 -62 -23 -28 -6 -57 -17 -65 -24 -8 -6 -35 -23 -60 -38 -84 -49 -134 -117
-169 -232 -20 -65 -21 -90 -19 -305 l3 -235 35 0 35 0 6 220 c3 121 10 236 16
255 7 19 16 53 22 75 11 43 81 125 106 125 8 0 15 4 15 8 0 12 95 72 114 72 8
0 38 9 66 20 35 14 74 20 129 20 57 0 82 4 91 15 6 8 18 61 26 117 16 117 29
136 73 114 40 -21 126 -36 231 -43 104 -6 256 14 322 43 61 27 68 18 69 -88 2
-146 -2 -141 109 -155 180 -22 318 -92 389 -198 40 -59 51 -145 51 -396 l0
-199 24 -6 c14 -3 34 -3 45 1 20 6 21 13 21 220 0 277 -12 340 -83 448 -28 42
-54 77 -58 77 -4 0 -14 6 -21 13 -48 48 -159 89 -302 112 -43 7 -82 19 -87 26
-11 17 -12 190 -1 204 11 16 105 91 130 104 34 18 152 160 174 211 86 195 97
251 98 517 0 158 3 163 92 163 l60 0 -6 28 c-3 15 -11 54 -17 87 -12 67 -52
196 -73 235 -7 14 -19 42 -25 63 -7 20 -16 37 -21 37 -4 0 -13 14 -20 30 -7
17 -15 30 -19 30 -3 0 -25 24 -49 54 -32 42 -59 63 -118 93 -97 48 -107 63
-98 141 6 56 5 59 -17 65 -30 8 -756 6 -869 -3z m785 -90 c13 -21 -8 -52 -56
-79 -56 -32 -50 -41 27 -41 41 0 73 -11 184 -63 58 -28 176 -165 195 -227 4
-14 15 -38 25 -55 21 -35 42 -121 44 -185 l1 -45 -51 -3 -51 -3 -5 -232 c-5
-219 -7 -237 -32 -317 -16 -47 -32 -92 -37 -100 -5 -8 -15 -26 -22 -40 -26
-53 -129 -189 -150 -198 -4 -2 -14 -11 -23 -20 -24 -23 -97 -72 -110 -72 -6 0
-22 -8 -35 -19 -14 -10 -40 -23 -59 -29 -19 -6 -55 -18 -80 -28 -65 -24 -355
-24 -420 0 -25 10 -60 22 -78 27 -18 6 -49 21 -69 35 -20 13 -39 24 -44 24 -9
0 -62 35 -93 60 -50 42 -96 97 -144 170 -19 30 -43 66 -52 80 -10 14 -21 41
-25 60 -4 19 -14 49 -21 66 -8 17 -18 82 -22 145 l-7 114 -60 31 c-53 27 -62
36 -78 78 -15 41 -16 53 -5 82 17 49 51 77 101 83 l42 6 6 180 c5 148 9 190
27 238 22 62 79 139 115 159 12 6 24 15 27 19 14 21 86 60 128 70 25 5 51 14
57 19 19 16 60 17 452 19 254 1 394 -3 398 -9z"/>
<path d="M649 2093 c-14 -2 -45 -23 -68 -47 -34 -34 -42 -49 -39 -72 4 -36 31
-43 55 -13 43 53 53 59 98 59 58 0 92 -16 107 -52 10 -22 19 -28 38 -26 20 2
26 9 28 34 3 26 -4 38 -42 71 -54 48 -96 58 -177 46z"/>
<path d="M1215 2089 c-16 -5 -45 -23 -64 -39 -27 -23 -34 -37 -35 -67 -1 -32
2 -38 21 -41 16 -2 28 6 45 32 25 38 42 46 102 46 33 0 45 -7 77 -40 45 -47
79 -53 79 -15 0 29 -32 82 -64 106 -26 20 -121 31 -161 18z"/>
<path d="M715 1641 c-23 -73 77 -180 187 -202 29 -5 63 -14 74 -19 17 -7 27
-3 44 15 22 23 22 23 2 34 -12 6 -30 11 -42 11 -35 0 -123 41 -157 73 -18 17
-35 43 -38 59 -10 44 -59 64 -70 29z"/>
</g>
</svg>
